<svg width="123" height="41" viewBox="0 0 123 41" fill="none" xmlns="http://www.w3.org/2000/svg">
<rect x="0.393782" y="0.393782" width="122.212" height="39.3782" rx="7.48186" stroke="black" stroke-width="0.787565"/>
<g clip-path="url(#clip0_22_4)">
<path d="M22.49 20.1C22.49 19.1387 22.7047 18.28 23.134 17.524C23.5727 16.7587 24.1653 16.166 24.912 15.746C25.668 15.3167 26.5127 15.102 27.446 15.102C28.538 15.102 29.4947 15.382 30.316 15.942C31.1373 16.502 31.7113 17.2767 32.038 18.266H29.784C29.56 17.7993 29.2427 17.4493 28.832 17.216C28.4307 16.9827 27.964 16.866 27.432 16.866C26.8627 16.866 26.354 17.0013 25.906 17.272C25.4673 17.5333 25.122 17.9067 24.87 18.392C24.6273 18.8773 24.506 19.4467 24.506 20.1C24.506 20.744 24.6273 21.3133 24.87 21.808C25.122 22.2933 25.4673 22.6713 25.906 22.942C26.354 23.2033 26.8627 23.334 27.432 23.334C27.964 23.334 28.4307 23.2173 28.832 22.984C29.2427 22.7413 29.56 22.3867 29.784 21.92H32.038C31.7113 22.9187 31.1373 23.698 30.316 24.258C29.504 24.8087 28.5473 25.084 27.446 25.084C26.5127 25.084 25.668 24.874 24.912 24.454C24.1653 24.0247 23.5727 23.432 23.134 22.676C22.7047 21.92 22.49 21.0613 22.49 20.1ZM37.1561 25.126C36.4094 25.126 35.7374 24.9627 35.1401 24.636C34.5428 24.3 34.0714 23.8287 33.7261 23.222C33.3901 22.6153 33.2221 21.9153 33.2221 21.122C33.2221 20.3287 33.3948 19.6287 33.7401 19.022C34.0948 18.4153 34.5754 17.9487 35.1821 17.622C35.7888 17.286 36.4654 17.118 37.2121 17.118C37.9588 17.118 38.6354 17.286 39.2421 17.622C39.8488 17.9487 40.3248 18.4153 40.6701 19.022C41.0248 19.6287 41.2021 20.3287 41.2021 21.122C41.2021 21.9153 41.0201 22.6153 40.6561 23.222C40.3014 23.8287 39.8161 24.3 39.2001 24.636C38.5934 24.9627 37.9121 25.126 37.1561 25.126ZM37.1561 23.418C37.5108 23.418 37.8421 23.334 38.1501 23.166C38.4674 22.9887 38.7194 22.7273 38.9061 22.382C39.0928 22.0367 39.1861 21.6167 39.1861 21.122C39.1861 20.3847 38.9901 19.82 38.5981 19.428C38.2154 19.0267 37.7441 18.826 37.1841 18.826C36.6241 18.826 36.1528 19.0267 35.7701 19.428C35.3968 19.82 35.2101 20.3847 35.2101 21.122C35.2101 21.8593 35.3921 22.4287 35.7561 22.83C36.1294 23.222 36.5961 23.418 37.1561 23.418ZM46.9378 17.132C47.8618 17.132 48.6085 17.426 49.1778 18.014C49.7472 18.5927 50.0318 19.4047 50.0318 20.45V25H48.0718V20.716C48.0718 20.1 47.9178 19.6287 47.6098 19.302C47.3018 18.966 46.8818 18.798 46.3498 18.798C45.8085 18.798 45.3792 18.966 45.0618 19.302C44.7538 19.6287 44.5998 20.1 44.5998 20.716V25H42.6398V17.244H44.5998V18.21C44.8612 17.874 45.1925 17.6127 45.5938 17.426C46.0045 17.23 46.4525 17.132 46.9378 17.132ZM54.1777 18.854V22.606C54.1777 22.8673 54.2384 23.0587 54.3597 23.18C54.4904 23.292 54.705 23.348 55.0037 23.348H55.9137V25H54.6817C53.0297 25 52.2037 24.1973 52.2037 22.592V18.854H51.2797V17.244H52.2037V15.326H54.1777V17.244H55.9137V18.854H54.1777ZM56.8194 21.094C56.8194 20.31 56.9734 19.6147 57.2814 19.008C57.5988 18.4013 58.0234 17.9347 58.5554 17.608C59.0968 17.2813 59.6988 17.118 60.3614 17.118C60.9401 17.118 61.4441 17.2347 61.8734 17.468C62.3121 17.7013 62.6621 17.9953 62.9234 18.35V17.244H64.8974V25H62.9234V23.866C62.6714 24.23 62.3214 24.5333 61.8734 24.776C61.4348 25.0093 60.9261 25.126 60.3474 25.126C59.6941 25.126 59.0968 24.958 58.5554 24.622C58.0234 24.286 57.5988 23.8147 57.2814 23.208C56.9734 22.592 56.8194 21.8873 56.8194 21.094ZM62.9234 21.122C62.9234 20.646 62.8301 20.24 62.6434 19.904C62.4568 19.5587 62.2048 19.2973 61.8874 19.12C61.5701 18.9333 61.2294 18.84 60.8654 18.84C60.5014 18.84 60.1654 18.9287 59.8574 19.106C59.5494 19.2833 59.2974 19.5447 59.1014 19.89C58.9148 20.226 58.8214 20.6273 58.8214 21.094C58.8214 21.5607 58.9148 21.9713 59.1014 22.326C59.2974 22.6713 59.5494 22.9373 59.8574 23.124C60.1748 23.3107 60.5108 23.404 60.8654 23.404C61.2294 23.404 61.5701 23.3153 61.8874 23.138C62.2048 22.9513 62.4568 22.69 62.6434 22.354C62.8301 22.0087 62.9234 21.598 62.9234 21.122ZM66.3077 21.122C66.3077 20.3193 66.471 19.6193 66.7977 19.022C67.1244 18.4153 67.577 17.9487 68.1557 17.622C68.7344 17.286 69.397 17.118 70.1437 17.118C71.105 17.118 71.8984 17.3607 72.5237 17.846C73.1584 18.322 73.583 18.994 73.7977 19.862H71.6837C71.5717 19.526 71.3804 19.2647 71.1097 19.078C70.8484 18.882 70.5217 18.784 70.1297 18.784C69.5697 18.784 69.1264 18.9893 68.7997 19.4C68.473 19.8013 68.3097 20.3753 68.3097 21.122C68.3097 21.8593 68.473 22.4333 68.7997 22.844C69.1264 23.2453 69.5697 23.446 70.1297 23.446C70.923 23.446 71.441 23.0913 71.6837 22.382H73.7977C73.583 23.222 73.1584 23.8893 72.5237 24.384C71.889 24.8787 71.0957 25.126 70.1437 25.126C69.397 25.126 68.7344 24.9627 68.1557 24.636C67.577 24.3 67.1244 23.8333 66.7977 23.236C66.471 22.6293 66.3077 21.9247 66.3077 21.122ZM77.5156 18.854V22.606C77.5156 22.8673 77.5762 23.0587 77.6976 23.18C77.8282 23.292 78.0429 23.348 78.3416 23.348H79.2516V25H78.0196C76.3676 25 75.5416 24.1973 75.5416 22.592V18.854H74.6176V17.244H75.5416V15.326H77.5156V17.244H79.2516V18.854H77.5156ZM85.9293 15.228V21.276C85.9293 21.9387 86.1019 22.4473 86.4473 22.802C86.7926 23.1473 87.2779 23.32 87.9033 23.32C88.5379 23.32 89.0279 23.1473 89.3733 22.802C89.7186 22.4473 89.8913 21.9387 89.8913 21.276V15.228H91.8653V21.262C91.8653 22.0927 91.6833 22.7973 91.3193 23.376C90.9646 23.9453 90.4839 24.3747 89.8773 24.664C89.2799 24.9533 88.6126 25.098 87.8753 25.098C87.1473 25.098 86.4846 24.9533 85.8873 24.664C85.2993 24.3747 84.8326 23.9453 84.4873 23.376C84.1419 22.7973 83.9693 22.0927 83.9693 21.262V15.228H85.9293ZM96.727 25.126C96.0923 25.126 95.523 25.014 95.019 24.79C94.515 24.5567 94.1136 24.244 93.815 23.852C93.5256 23.46 93.367 23.026 93.339 22.55H95.313C95.3503 22.8487 95.495 23.096 95.747 23.292C96.0083 23.488 96.3303 23.586 96.713 23.586C97.0863 23.586 97.3756 23.5113 97.581 23.362C97.7956 23.2127 97.903 23.0213 97.903 22.788C97.903 22.536 97.7723 22.3493 97.511 22.228C97.259 22.0973 96.853 21.9573 96.293 21.808C95.7143 21.668 95.2383 21.5233 94.865 21.374C94.501 21.2247 94.1836 20.996 93.913 20.688C93.6516 20.38 93.521 19.9647 93.521 19.442C93.521 19.0127 93.6423 18.6207 93.885 18.266C94.137 17.9113 94.4916 17.6313 94.949 17.426C95.4156 17.2207 95.9616 17.118 96.587 17.118C97.511 17.118 98.2483 17.3513 98.799 17.818C99.3496 18.2753 99.653 18.896 99.709 19.68H97.833C97.805 19.372 97.6743 19.1293 97.441 18.952C97.217 18.7653 96.9136 18.672 96.531 18.672C96.1763 18.672 95.901 18.7373 95.705 18.868C95.5183 18.9987 95.425 19.1807 95.425 19.414C95.425 19.6753 95.5556 19.876 95.817 20.016C96.0783 20.1467 96.4843 20.282 97.035 20.422C97.595 20.562 98.057 20.7067 98.421 20.856C98.785 21.0053 99.0976 21.2387 99.359 21.556C99.6296 21.864 99.7696 22.2747 99.779 22.788C99.779 23.236 99.653 23.6373 99.401 23.992C99.1583 24.3467 98.8036 24.6267 98.337 24.832C97.8796 25.028 97.343 25.126 96.727 25.126Z" fill="black"/>
</g>
<defs>
<clipPath id="clip0_22_4">
<rect width="123" height="40.1658" rx="7.87565" fill="white"/>
</clipPath>
</defs>
</svg>
