<svg width="72" height="72" viewBox="0 0 72 72" fill="none" xmlns="http://www.w3.org/2000/svg">
<g filter="url(#filter0_i_1161_1384)">
<rect width="72" height="72" rx="36" fill="#2EAAE1" fill-opacity="0.01"/>
<g clip-path="url(#clip0_1161_1384)">
<path d="M46.9091 34.1818H25.0909C22.0833 34.1818 19.6364 31.7349 19.6364 28.7273C19.6364 25.7196 22.0833 23.2727 25.0909 23.2727H34.1819V25.0909C34.1819 26.0951 34.9959 26.9091 36.0001 26.9091H46.9091C47.9133 26.9091 48.7273 26.0951 48.7273 25.0909V23.2727H54.1819C55.186 23.2727 56.0001 22.4587 56.0001 21.4545C56.0001 20.4504 55.186 19.6363 54.1819 19.6363H48.7273V17.8182C48.7273 16.8141 47.9132 16 46.9091 16H36C34.9959 16 34.1818 16.8141 34.1818 17.8182V19.6364H25.0909C20.0782 19.6363 16 23.7145 16 28.7273C16 33.74 20.0782 37.8182 25.0909 37.8182H46.9091C49.9169 37.8182 52.3637 40.2652 52.3637 43.2727C52.3637 46.2802 49.9169 48.7273 46.9091 48.7273H37.8182V46.9091C37.8182 45.9049 37.0041 45.0909 36 45.0909H25.0909C24.0868 45.0909 23.2727 45.9049 23.2727 46.9091V48.7273H17.8182C16.8141 48.7273 16 49.5413 16 50.5455C16 51.5496 16.8141 52.3637 17.8182 52.3637H23.2727V54.1819C23.2727 55.186 24.0868 56.0001 25.0909 56.0001H36C37.0041 56.0001 37.8182 55.186 37.8182 54.1819V52.3637H46.9091C51.9219 52.3637 56.0001 48.2855 56.0001 43.2727C56.0001 38.26 51.9218 34.1818 46.9091 34.1818Z" fill="black"/>
</g>
</g>
<defs>
<filter id="filter0_i_1161_1384" x="0" y="0" width="72" height="72.5" filterUnits="userSpaceOnUse" color-interpolation-filters="sRGB">
<feFlood flood-opacity="0" result="BackgroundImageFix"/>
<feBlend mode="normal" in="SourceGraphic" in2="BackgroundImageFix" result="shape"/>
<feColorMatrix in="SourceAlpha" type="matrix" values="0 0 0 0 0 0 0 0 0 0 0 0 0 0 0 0 0 0 127 0" result="hardAlpha"/>
<feOffset dy="1"/>
<feGaussianBlur stdDeviation="0.25"/>
<feComposite in2="hardAlpha" operator="arithmetic" k2="-1" k3="1"/>
<feColorMatrix type="matrix" values="0 0 0 0 0.180392 0 0 0 0 0.666667 0 0 0 0 0.882353 0 0 0 1 0"/>
<feBlend mode="normal" in2="shape" result="effect1_innerShadow_1161_1384"/>
</filter>
<clipPath id="clip0_1161_1384">
<rect width="40" height="40" fill="white" transform="translate(16 16)"/>
</clipPath>
</defs>
</svg>
