<svg width="72" height="72" viewBox="0 0 72 72" fill="none" xmlns="http://www.w3.org/2000/svg">
<g filter="url(#filter0_i_1161_515)">
<rect width="72" height="72" rx="36" fill="#2EAAE1" fill-opacity="0.01"/>
<g clip-path="url(#clip0_1161_515)">
<path d="M39.0299 37.9836C38.0054 37.9836 37.1718 38.8172 37.1718 39.8418H34.8281C34.8281 38.8172 33.9946 37.9836 32.97 37.9836C31.9454 37.9836 31.1119 38.8172 31.1119 39.8418C31.1119 41.1091 31.6674 42.3046 32.6361 43.1219L36 45.9601L39.364 43.122C40.3326 42.3047 40.8882 41.1091 40.8882 39.8418C40.8881 38.8172 40.0546 37.9836 39.0299 37.9836Z" fill="black"/>
<path d="M50.9095 38.6329L36 28.1158L21.0906 38.6329V51.5949H18.482V53.9385H53.518V51.5949H50.9095V38.6329ZM40.8752 44.9133L36 49.0267L31.1248 44.9133C29.6272 43.6498 28.7682 41.8013 28.7682 39.8419C28.7682 37.525 30.6532 35.6401 32.97 35.6401C34.1594 35.6401 35.2349 36.1369 36 36.9336C36.7651 36.1369 37.8407 35.6401 39.0299 35.6401C41.3468 35.6401 43.2317 37.525 43.2317 39.8419C43.2318 41.8012 42.3728 43.6498 40.8752 44.9133Z" fill="black"/>
<path d="M55.939 33.5988C55.7523 32.5175 55.1556 31.5737 54.259 30.9412L36.0001 18.0616L17.7411 30.9413C16.8444 31.5738 16.2478 32.5176 16.061 33.5989C15.8742 34.6801 16.1197 35.7694 16.7522 36.666C17.1099 37.1731 17.5673 37.584 18.0927 37.8794L36 25.2477L53.9044 37.8773C54.4216 37.5877 54.8839 37.1818 55.2478 36.6659C55.8804 35.7693 56.1258 34.6801 55.939 33.5988Z" fill="black"/>
</g>
</g>
<defs>
<filter id="filter0_i_1161_515" x="0" y="0" width="72" height="72.5" filterUnits="userSpaceOnUse" color-interpolation-filters="sRGB">
<feFlood flood-opacity="0" result="BackgroundImageFix"/>
<feBlend mode="normal" in="SourceGraphic" in2="BackgroundImageFix" result="shape"/>
<feColorMatrix in="SourceAlpha" type="matrix" values="0 0 0 0 0 0 0 0 0 0 0 0 0 0 0 0 0 0 127 0" result="hardAlpha"/>
<feOffset dy="1"/>
<feGaussianBlur stdDeviation="0.25"/>
<feComposite in2="hardAlpha" operator="arithmetic" k2="-1" k3="1"/>
<feColorMatrix type="matrix" values="0 0 0 0 0.180392 0 0 0 0 0.666667 0 0 0 0 0.882353 0 0 0 1 0"/>
<feBlend mode="normal" in2="shape" result="effect1_innerShadow_1161_515"/>
</filter>
<clipPath id="clip0_1161_515">
<rect width="40" height="40" fill="white" transform="translate(16 16)"/>
</clipPath>
</defs>
</svg>
