<svg width="72" height="73" viewBox="0 0 72 73" fill="none" xmlns="http://www.w3.org/2000/svg">
<g filter="url(#filter0_i_1161_91)">
<rect y="0.189941" width="72" height="72" rx="36" fill="#2EAAE1" fill-opacity="0.01"/>
<path d="M31.3063 48.5929C31.0097 48.4165 30.9108 48.0332 31.0878 47.736C31.2636 47.4387 31.6481 47.3429 31.9435 47.5175C33.0535 48.176 34.2109 48.5379 35.375 48.6378V47.4123C33.5898 47.3303 31.8123 46.9169 30.1125 46.1326C29.8 45.9879 29.6633 45.6162 29.8074 45.3031C29.9526 44.9894 30.3237 44.8533 30.6375 44.9973C32.1676 45.704 33.7676 46.0794 35.375 46.1605V44.9128C33.5898 44.8308 31.8123 44.4173 30.1125 43.633C29.8 43.4884 29.6633 43.1167 29.8074 42.8036C29.9526 42.4886 30.3237 42.3531 30.6375 42.4978C32.1676 43.2045 33.7676 43.5798 35.375 43.6609V42.4118C33.1806 42.3434 30.9932 41.9328 28.9041 41.1436C28.5818 41.0215 28.4182 40.6608 28.5403 40.3379C28.6611 40.015 29.0212 39.8514 29.3459 39.9741C31.2934 40.7097 33.3304 41.0937 35.375 41.1618V39.9122C33.5898 39.8302 31.8123 39.4167 30.1125 38.6324C29.8 38.4878 29.6633 38.1161 29.8074 37.8029C29.9526 37.4886 30.3237 37.3537 30.6375 37.4972C32.1676 38.2039 33.7676 38.5792 35.375 38.6603V36.1899H19.75C19.0591 36.1899 18.5 36.7496 18.5 37.4399V52.4399C18.5 53.1302 19.0591 53.6899 19.75 53.6899H35.375V49.8958C33.9944 49.7934 32.6216 49.373 31.3063 48.5929Z" fill="black"/>
<path d="M52.25 36.1899H36.625V38.6603C38.2324 38.5792 39.8324 38.2039 41.3625 37.4972C41.6763 37.3537 42.0474 37.4886 42.1926 37.8029C42.3367 38.1161 42.2 38.4878 41.8875 38.6324C40.1877 39.4167 38.4102 39.8302 36.625 39.9122V41.1618C38.6696 41.0937 40.7066 40.7097 42.6541 39.9741C42.9788 39.8521 43.3389 40.015 43.4597 40.3379C43.5818 40.6608 43.4182 41.0215 43.0959 41.1436C41.0068 41.9328 38.8194 42.3434 36.625 42.4118V43.6609C38.2324 43.5798 39.8324 43.2045 41.3625 42.4978C41.6763 42.3531 42.0474 42.4886 42.1926 42.8036C42.3367 43.1167 42.2 43.4884 41.8875 43.633C40.1877 44.4173 38.4102 44.8308 36.625 44.9128V46.1605C38.2324 46.0794 39.8324 45.704 41.3625 44.9973C41.6763 44.8533 42.0474 44.9894 42.1926 45.3031C42.3367 45.6162 42.2 45.9879 41.8875 46.1326C40.1877 46.9169 38.4102 47.3303 36.625 47.4123V48.6378C37.7891 48.5379 38.9464 48.1759 40.0563 47.5175C40.353 47.3429 40.7363 47.4387 40.912 47.736C41.089 48.0332 40.9902 48.4165 40.6935 48.5929C39.3784 49.373 38.0056 49.7934 36.625 49.8958V53.6899H52.25C52.9409 53.6899 53.5 53.1302 53.5 52.4399V37.4399C53.5 36.7496 52.9409 36.1899 52.25 36.1899Z" fill="black"/>
<path d="M42.25 24.9399C42.25 21.4939 39.446 18.6899 36 18.6899C32.554 18.6899 29.75 21.4939 29.75 24.9399C29.75 28.386 32.554 31.1899 36 31.1899C39.446 31.1899 42.25 28.386 42.25 24.9399Z" fill="black"/>
<path d="M26 34.9399C26 32.8689 27.6789 31.1899 29.75 31.1899H42.25C44.3211 31.1899 46 32.8689 46 34.9399L26 34.9399Z" fill="black"/>
</g>
<defs>
<filter id="filter0_i_1161_91" x="0" y="0.189941" width="72" height="72.5" filterUnits="userSpaceOnUse" color-interpolation-filters="sRGB">
<feFlood flood-opacity="0" result="BackgroundImageFix"/>
<feBlend mode="normal" in="SourceGraphic" in2="BackgroundImageFix" result="shape"/>
<feColorMatrix in="SourceAlpha" type="matrix" values="0 0 0 0 0 0 0 0 0 0 0 0 0 0 0 0 0 0 127 0" result="hardAlpha"/>
<feOffset dy="1"/>
<feGaussianBlur stdDeviation="0.25"/>
<feComposite in2="hardAlpha" operator="arithmetic" k2="-1" k3="1"/>
<feColorMatrix type="matrix" values="0 0 0 0 0.180392 0 0 0 0 0.666667 0 0 0 0 0.882353 0 0 0 1 0"/>
<feBlend mode="normal" in2="shape" result="effect1_innerShadow_1161_91"/>
</filter>
</defs>
</svg>
