<svg width="72" height="72" viewBox="0 0 72 72" fill="none" xmlns="http://www.w3.org/2000/svg">
<g filter="url(#filter0_i_1161_1454)">
<rect width="72" height="72" rx="36" fill="#2EAAE1" fill-opacity="0.01"/>
<g clip-path="url(#clip0_1161_1454)">
<path d="M26.0615 27.9085C26.0352 28.8728 26.1813 30.0455 26.7183 31.3246C26.2943 31.9579 25.9355 32.6102 25.6417 33.2795C23.4715 33.2128 21.5408 34.1717 20.8741 34.5461C20.3671 34.1966 19.9752 33.7201 19.7061 33.1261C19.5798 32.8465 19.5077 32.5962 19.4679 32.4248C21.0405 31.3256 23.2191 30.9499 23.2417 30.9459C23.4623 30.9092 23.6204 30.7123 23.6084 30.4891C23.5965 30.2657 23.4186 30.0871 23.1954 30.0738C21.2837 29.9612 20.0502 29.0667 19.6754 28.7556C19.6463 27.5166 20.0507 26.603 20.3025 26.1577C22.1164 27.1025 24.05 27.6903 26.0615 27.9085Z" fill="black"/>
<path d="M38.8592 18.7981C38.8741 18.8033 40.2305 19.2825 41.1764 20.4643C39.7224 21.4117 36.9655 23.7507 34.5629 28.8774C32.9683 32.2805 31.6311 34.119 30.6848 35.1084C29.2663 33.8698 28.2364 32.5548 27.6207 31.1949C27.6199 31.1934 27.6195 31.1918 27.6186 31.1903C27.0783 29.9955 26.8567 28.7828 26.9572 27.5749C26.9585 27.5655 26.9595 27.5562 26.9606 27.5468C26.9614 27.5384 26.9616 27.5307 26.9619 27.5226C26.9832 27.2856 27.0171 27.0484 27.0634 26.8117C27.2782 25.7156 27.6944 25.0377 27.698 25.032C27.7965 24.876 27.7868 24.6749 27.6739 24.5291L25.8564 22.1786L27.4022 20.8L29.2756 23.2737C29.4196 23.4641 29.6897 23.5044 29.8832 23.3646L31.798 21.9826C31.9779 21.8529 32.0329 21.6097 31.9266 21.4152L30.5422 18.8863L32.462 18.0035L33.8135 20.5321C33.9224 20.736 34.1702 20.8206 34.3809 20.7261L36.4229 19.8104C36.6418 19.712 36.7416 19.4568 36.6473 19.2363L35.5439 16.6577L37.4121 16L38.6032 18.5669C38.6532 18.676 38.7462 18.7593 38.8592 18.7981Z" fill="black"/>
<path d="M52.2554 41.9122C52.8056 46.6202 52.5322 50.4723 51.465 53.0514C50.7788 54.7102 49.1708 55.8556 47.3682 55.9691C47.0361 55.9902 46.7062 56.0001 46.3786 56.0001C42.0602 56.0001 38.1391 54.2585 35.5363 52.7348C32.5517 50.9879 30.0124 48.5648 28.1927 45.7275C25.0799 40.8745 25.2672 36.9326 26.4325 34.0538C26.4458 34.029 26.4565 34.0027 26.4646 33.9751C26.7047 33.3941 26.9844 32.8572 27.2843 32.3652C27.9505 33.5693 28.9127 34.7295 30.1551 35.8256C29.6689 36.2227 29.3671 36.3311 29.2877 36.3542C29.0549 36.4227 28.9218 36.667 28.9903 36.9C29.059 37.1326 29.303 37.2659 29.5361 37.1971C29.7962 37.1205 30.3468 36.8805 31.1265 36.138C32.197 35.1188 33.6988 33.1529 35.4744 29.3642C37.804 24.3923 40.441 22.1734 41.8053 21.2929C41.9011 21.2312 42.0005 21.1778 42.1027 21.1333C42.8876 20.7896 43.8251 20.9505 44.4386 21.5656C44.4597 21.587 44.4802 21.6086 44.5005 21.6299C45.0099 22.171 45.1935 22.9593 44.9797 23.6874C44.7664 24.4116 44.4623 25.0777 44.0964 25.7113C44.0815 25.7319 44.0683 25.7545 44.0573 25.778C43.4462 26.8209 42.6704 27.7785 41.8675 28.7701C40.9756 29.8712 40.0641 30.9964 39.3814 32.2729C39.3705 32.2901 39.3608 32.3084 39.3522 32.3273C39.352 32.3278 39.352 32.3281 39.3517 32.3284C38.9994 32.9953 38.7098 33.7039 38.5184 34.4721C38.0275 36.4393 38.701 38.2401 39.352 39.9812C39.9986 41.7098 40.609 43.3423 40.1762 45.1379C40.1194 45.3739 40.2645 45.6113 40.5003 45.6684C40.535 45.6767 40.5696 45.6806 40.6037 45.6806C40.8024 45.6806 40.9824 45.5452 41.0307 45.3439C41.5266 43.2869 40.8396 41.45 40.1753 39.6734C39.5432 37.9835 38.9464 36.3875 39.3711 34.6852C39.5193 34.0909 39.731 33.5362 39.9898 33.007C41.8861 33.431 44.3481 34.3518 45.9462 36.3499C46.0329 36.4585 46.1608 36.5148 46.2899 36.5148C46.3861 36.5148 46.4831 36.4835 46.5641 36.4186C46.7537 36.2671 46.7844 35.9906 46.6329 35.801C45.7841 34.7398 44.6386 33.8601 43.2279 33.1857C42.3712 32.7761 41.4313 32.4474 40.4267 32.2062C41.0254 31.2062 41.7759 30.28 42.5503 29.3237C43.2756 28.4282 44.0146 27.5159 44.6344 26.5183C45.8443 27.067 47.4784 28.2363 48.9612 30.7252C50.6013 33.4792 51.7096 37.243 52.2554 41.9122ZM46.8141 52.4079C46.8141 52.1655 46.6174 51.9684 46.3745 51.9684C42.9313 51.9684 39.6876 50.4928 37.5725 49.2551C35.1345 47.828 33.0645 45.8556 31.5864 43.5508C31.4554 43.3463 31.1835 43.2869 30.9791 43.4183C30.7746 43.5492 30.7152 43.8211 30.8465 44.0255C32.3994 46.4464 34.5715 48.5171 37.1288 50.0135C39.3376 51.3064 42.7342 52.8473 46.3745 52.8473C46.6174 52.8475 46.8141 52.6509 46.8141 52.4079Z" fill="black"/>
</g>
</g>
<defs>
<filter id="filter0_i_1161_1454" x="0" y="0" width="72" height="72.5" filterUnits="userSpaceOnUse" color-interpolation-filters="sRGB">
<feFlood flood-opacity="0" result="BackgroundImageFix"/>
<feBlend mode="normal" in="SourceGraphic" in2="BackgroundImageFix" result="shape"/>
<feColorMatrix in="SourceAlpha" type="matrix" values="0 0 0 0 0 0 0 0 0 0 0 0 0 0 0 0 0 0 127 0" result="hardAlpha"/>
<feOffset dy="1"/>
<feGaussianBlur stdDeviation="0.25"/>
<feComposite in2="hardAlpha" operator="arithmetic" k2="-1" k3="1"/>
<feColorMatrix type="matrix" values="0 0 0 0 0.180392 0 0 0 0 0.666667 0 0 0 0 0.882353 0 0 0 1 0"/>
<feBlend mode="normal" in2="shape" result="effect1_innerShadow_1161_1454"/>
</filter>
<clipPath id="clip0_1161_1454">
<rect width="40" height="40" fill="white" transform="translate(16 16)"/>
</clipPath>
</defs>
</svg>
