<svg width="72" height="73" viewBox="0 0 72 73" fill="none" xmlns="http://www.w3.org/2000/svg">
<g filter="url(#filter0_i_1161_764)">
<rect y="0.189941" width="72" height="72" rx="36" fill="#2EAAE1" fill-opacity="0.01"/>
<g clip-path="url(#clip0_1161_764)">
<path d="M37.2055 34.8835C32.7456 35.8586 30.5167 33.7817 30.4007 33.6708C29.8375 33.1088 28.9262 33.1039 28.3576 33.6621C27.785 34.2237 27.7763 35.1437 28.3379 35.7159C28.4493 35.8294 30.6836 38.0472 34.9232 38.0472C35.8045 38.0472 36.7727 37.9523 37.8263 37.7212C38.6098 37.5498 39.1056 36.7749 38.9342 35.9922C38.7632 35.2082 37.9887 34.7129 37.2055 34.8835Z" fill="black"/>
<path d="M24.0338 34.3659C25.8383 34.3659 27.3011 32.903 27.3011 31.0985C27.3011 29.294 25.8383 27.8312 24.0338 27.8312C22.2293 27.8312 20.7664 29.294 20.7664 31.0985C20.7664 32.903 22.2293 34.3659 24.0338 34.3659Z" fill="black"/>
<path d="M54.2448 44.478L48.1257 42.0065C47.9136 41.9214 47.6875 41.8774 47.4594 41.8774H45.9001V41.5387C45.9001 41.3652 45.8553 41.2041 45.7805 41.0598L51.5489 42.6338C51.7014 42.6754 51.8548 42.6955 52.0056 42.6955C52.7661 42.6955 53.4629 42.1899 53.673 41.4203C53.9246 40.4986 53.3815 39.547 52.4599 39.2962L44.8613 37.2218C44.7104 37.1807 44.562 37.1807 44.3967 37.1815L39.2166 37.1865C38.9753 37.7566 38.4717 38.206 37.8226 38.3482C36.9679 38.5353 36.098 38.6302 35.236 38.6302C31.0309 38.6302 28.166 36.382 28.0464 36.2862C27.6345 35.9577 27.3747 35.4882 27.3159 34.9645C27.2563 34.4404 27.4047 33.9245 27.734 33.5117C28.1105 33.039 28.6737 32.7681 29.2784 32.7681C29.72 32.7681 30.1545 32.9189 30.5019 33.1931C30.5602 33.2383 31.6846 34.0971 33.4724 34.4885L30.2819 32.4314C29.1572 31.7054 27.766 32.2065 26.9496 32.9789C26.9496 32.9789 26.6766 33.212 26.4851 33.5241C26.3017 33.8225 26.1587 34.1945 26.1587 34.1945L26.1542 34.2036C25.7846 35.2732 25.9034 36.7421 27.0322 37.4705L33.0934 41.3792C33.1653 41.4256 33.2389 41.4676 33.3121 41.5046C33.3121 41.5157 33.3088 41.5272 33.3088 41.5383V41.877H31.5851L23.5219 36.2821C23.5618 36.2385 23.6 36.1916 23.6329 36.1394C23.9289 35.6667 23.7854 35.043 23.3123 34.7462L20.5674 33.027C20.1066 32.738 19.5052 32.8692 19.1997 33.314C18.4236 32.9345 17.4674 33.1611 16.9597 33.8924C16.3994 34.6998 16.5996 35.8089 17.4074 36.3692L30.0135 45.1193C30.3111 45.3265 30.6655 45.4367 31.028 45.4367H33.3783C33.5279 45.8399 33.9135 46.1289 34.3678 46.1289H36.6037V54.4831H35.5147C35.0436 54.4831 34.6621 54.8654 34.6621 55.3366C34.6621 55.8077 35.044 56.1896 35.5147 56.1896H43.8319C44.303 56.1896 44.6849 55.8077 44.6849 55.3366C44.6849 54.8654 44.3026 54.4831 43.8319 54.4831H42.6056V46.1289H44.8411C45.2958 46.1289 45.681 45.8403 45.831 45.4367H47.1132L52.9117 47.7786C53.1295 47.867 53.3552 47.9085 53.5768 47.9085C54.2822 47.9085 54.9482 47.4876 55.2282 46.7949C55.5965 45.8831 55.1566 44.8463 54.2448 44.478Z" fill="black"/>
<path d="M31.2447 31.7481C34.4804 31.7481 36.2736 30.8827 37.4427 29.8583V32.1012C37.3383 32.5518 37.1467 33.3887 36.9206 34.3926C37.0074 34.3754 37.0929 34.3614 37.1796 34.3425C37.3202 34.3116 37.4625 34.2964 37.6043 34.2964C38.5276 34.2964 39.342 34.9517 39.5397 35.8549C39.5973 36.1192 39.5989 36.3823 39.5529 36.6331L44.4814 36.6084C44.6981 36.6084 44.888 36.6339 45.0878 36.6873L45.8097 36.8847C45.3994 34.881 44.9328 32.9086 44.7404 32.1107V29.4447C45.2695 30.5469 45.6 32.1259 45.5663 34.5464C45.5556 35.3102 46.1665 35.9387 46.9303 35.9494C46.9377 35.9494 46.9435 35.9494 46.9504 35.9494C47.7056 35.9494 48.3235 35.3427 48.3329 34.585C48.4254 28.0059 45.1293 24.9194 41.961 23.747C41.9577 23.7462 41.9545 23.7462 41.9524 23.7454L41.0903 24.6494L40.2028 23.7552C39.7087 23.8765 39.2252 24.0977 38.8034 24.3986C38.7915 24.4052 37.5755 25.296 36.7241 26.4836C35.7334 27.8234 34.8779 28.9798 31.2435 28.9798C30.4797 28.9798 29.8597 29.5997 29.8597 30.3639C29.8606 31.1286 30.4805 31.7481 31.2447 31.7481Z" fill="black"/>
<path d="M41.1442 23.4753C42.9887 23.4753 44.4855 21.9798 44.4855 20.1344C44.4855 19.3627 44.2179 18.6577 43.7764 18.0933H42.696V17.5864H43.2897C43.0817 17.4117 42.8555 17.258 42.6097 17.1375C42.3565 16.5801 41.7962 16.1899 41.145 16.1899C40.4947 16.1899 39.936 16.5792 39.6807 17.1363C39.4336 17.2567 39.2071 17.4113 38.9987 17.5864H39.677V18.0933H38.5115C38.0725 18.6577 37.8036 19.3627 37.8036 20.1344C37.8045 21.9798 39.2992 23.4753 41.1442 23.4753ZM41.145 16.8946C41.6461 16.8946 42.0527 17.3015 42.0527 17.8022C42.0527 18.303 41.6457 18.7099 41.145 18.7099C40.6447 18.7099 40.2381 18.303 40.2381 17.8022C40.2381 17.3015 40.6447 16.8946 41.145 16.8946Z" fill="black"/>
</g>
</g>
<defs>
<filter id="filter0_i_1161_764" x="0" y="0.189941" width="72" height="72.5" filterUnits="userSpaceOnUse" color-interpolation-filters="sRGB">
<feFlood flood-opacity="0" result="BackgroundImageFix"/>
<feBlend mode="normal" in="SourceGraphic" in2="BackgroundImageFix" result="shape"/>
<feColorMatrix in="SourceAlpha" type="matrix" values="0 0 0 0 0 0 0 0 0 0 0 0 0 0 0 0 0 0 127 0" result="hardAlpha"/>
<feOffset dy="1"/>
<feGaussianBlur stdDeviation="0.25"/>
<feComposite in2="hardAlpha" operator="arithmetic" k2="-1" k3="1"/>
<feColorMatrix type="matrix" values="0 0 0 0 0.180392 0 0 0 0 0.666667 0 0 0 0 0.882353 0 0 0 1 0"/>
<feBlend mode="normal" in2="shape" result="effect1_innerShadow_1161_764"/>
</filter>
<clipPath id="clip0_1161_764">
<rect width="39.9996" height="40" fill="white" transform="translate(16.0002 16.1899)"/>
</clipPath>
</defs>
</svg>
