<svg width="37" height="38" viewBox="0 0 37 38" fill="none" xmlns="http://www.w3.org/2000/svg">
<path opacity="0.1" fill-rule="evenodd" clip-rule="evenodd" d="M18.5 36.5C28.165 36.5 36 28.665 36 19C36 9.33502 28.165 1.5 18.5 1.5C8.83502 1.5 1 9.33502 1 19C1 28.665 8.83502 36.5 18.5 36.5Z" stroke="white" stroke-width="1.5"/>
<path d="M20.0932 14.5205H21.7016C21.8495 14.5205 21.9696 14.4074 21.9696 14.2679V12.7524C21.9696 12.6129 21.8495 12.4998 21.7016 12.4998H20.0932C18.4677 12.4998 17.1445 13.7461 17.1445 15.2783V17.0465H15.2681C15.1201 17.0465 15 17.1597 15 17.2991V18.8147C15 18.9541 15.1201 19.0673 15.2681 19.0673H17.1445V24.3719C17.1445 24.5113 17.2646 24.6245 17.4126 24.6245H19.0209C19.1689 24.6245 19.289 24.5113 19.289 24.3719V19.0673H21.1655C21.2807 19.0673 21.3831 18.9976 21.4201 18.8945L21.9562 17.3789C21.9836 17.3021 21.9696 17.2173 21.9192 17.1511C21.8683 17.0854 21.7879 17.0465 21.7016 17.0465H19.289V15.2783C19.289 14.8605 19.6498 14.5205 20.0932 14.5205Z" fill="white"/>
</svg>
