<svg width="37" height="38" viewBox="0 0 37 38" fill="none" xmlns="http://www.w3.org/2000/svg">
<path opacity="0.1" fill-rule="evenodd" clip-rule="evenodd" d="M18.5 36.5C28.165 36.5 36 28.665 36 19C36 9.33502 28.165 1.5 18.5 1.5C8.83502 1.5 1 9.33502 1 19C1 28.665 8.83502 36.5 18.5 36.5Z" stroke="white" stroke-width="1.5"/>
<path opacity="0.1" fill-rule="evenodd" clip-rule="evenodd" d="M18.5 36.5C28.165 36.5 36 28.665 36 19C36 9.33502 28.165 1.5 18.5 1.5C8.83502 1.5 1 9.33502 1 19C1 28.665 8.83502 36.5 18.5 36.5Z" stroke="white" stroke-width="1.5"/>
<path d="M16.2 12.8333H21.8C23.9333 12.8333 25.6667 14.5666 25.6667 16.6999V22.2999C25.6667 23.3254 25.2593 24.3089 24.5342 25.0341C23.809 25.7592 22.8255 26.1666 21.8 26.1666H16.2C14.0667 26.1666 12.3333 24.4333 12.3333 22.2999V16.6999C12.3333 15.6744 12.7407 14.6909 13.4659 13.9658C14.191 13.2406 15.1745 12.8333 16.2 12.8333ZM16.0667 14.1666C15.4302 14.1666 14.8197 14.4194 14.3696 14.8695C13.9195 15.3196 13.6667 15.9301 13.6667 16.5666V22.4333C13.6667 23.7599 14.74 24.8333 16.0667 24.8333H21.9333C22.5699 24.8333 23.1803 24.5804 23.6304 24.1303C24.0805 23.6802 24.3333 23.0698 24.3333 22.4333V16.5666C24.3333 15.2399 23.26 14.1666 21.9333 14.1666H16.0667ZM22.5 15.1666C22.721 15.1666 22.933 15.2544 23.0893 15.4107C23.2455 15.5669 23.3333 15.7789 23.3333 15.9999C23.3333 16.2209 23.2455 16.4329 23.0893 16.5892C22.933 16.7455 22.721 16.8333 22.5 16.8333C22.279 16.8333 22.067 16.7455 21.9108 16.5892C21.7545 16.4329 21.6667 16.2209 21.6667 15.9999C21.6667 15.7789 21.7545 15.5669 21.9108 15.4107C22.067 15.2544 22.279 15.1666 22.5 15.1666ZM19 16.1666C19.8841 16.1666 20.7319 16.5178 21.357 17.1429C21.9822 17.768 22.3333 18.6159 22.3333 19.4999C22.3333 20.384 21.9822 21.2318 21.357 21.8569C20.7319 22.4821 19.8841 22.8333 19 22.8333C18.116 22.8333 17.2681 22.4821 16.643 21.8569C16.0179 21.2318 15.6667 20.384 15.6667 19.4999C15.6667 18.6159 16.0179 17.768 16.643 17.1429C17.2681 16.5178 18.116 16.1666 19 16.1666ZM19 17.4999C18.4696 17.4999 17.9609 17.7106 17.5858 18.0857C17.2107 18.4608 17 18.9695 17 19.4999C17 20.0304 17.2107 20.5391 17.5858 20.9141C17.9609 21.2892 18.4696 21.4999 19 21.4999C19.5304 21.4999 20.0392 21.2892 20.4142 20.9141C20.7893 20.5391 21 20.0304 21 19.4999C21 18.9695 20.7893 18.4608 20.4142 18.0857C20.0392 17.7106 19.5304 17.4999 19 17.4999Z" fill="white"/>
</svg>
