<svg width="123" height="41" viewBox="0 0 123 41" fill="none" xmlns="http://www.w3.org/2000/svg">
<rect x="0.393782" y="0.393782" width="122.212" height="39.3782" rx="7.48186" stroke="black" stroke-width="0.787565"/>
<g clip-path="url(#clip0_29_37)">
<path d="M24.926 23.446H28.146V25H22.966V15.228H24.926V23.446ZM36.6018 20.954C36.6018 21.234 36.5831 21.486 36.5458 21.71H30.8758C30.9224 22.27 31.1184 22.7087 31.4638 23.026C31.8091 23.3433 32.2338 23.502 32.7378 23.502C33.4658 23.502 33.9838 23.1893 34.2918 22.564H36.4058C36.1818 23.3107 35.7524 23.9267 35.1178 24.412C34.4831 24.888 33.7038 25.126 32.7798 25.126C32.0331 25.126 31.3611 24.9627 30.7638 24.636C30.1758 24.3 29.7138 23.8287 29.3778 23.222C29.0511 22.6153 28.8878 21.9153 28.8878 21.122C28.8878 20.3193 29.0511 19.6147 29.3778 19.008C29.7044 18.4013 30.1618 17.9347 30.7498 17.608C31.3378 17.2813 32.0144 17.118 32.7798 17.118C33.5171 17.118 34.1751 17.2767 34.7538 17.594C35.3418 17.9113 35.7944 18.364 36.1118 18.952C36.4384 19.5307 36.6018 20.198 36.6018 20.954ZM34.5718 20.394C34.5624 19.89 34.3804 19.4887 34.0258 19.19C33.6711 18.882 33.2371 18.728 32.7238 18.728C32.2384 18.728 31.8278 18.8773 31.4918 19.176C31.1651 19.4653 30.9644 19.8713 30.8898 20.394H34.5718ZM37.5284 21.094C37.5284 20.31 37.6824 19.6147 37.9904 19.008C38.3077 18.4013 38.7324 17.9347 39.2644 17.608C39.8057 17.2813 40.4077 17.118 41.0704 17.118C41.6491 17.118 42.1531 17.2347 42.5824 17.468C43.0211 17.7013 43.3711 17.9953 43.6324 18.35V17.244H45.6064V25H43.6324V23.866C43.3804 24.23 43.0304 24.5333 42.5824 24.776C42.1437 25.0093 41.6351 25.126 41.0564 25.126C40.4031 25.126 39.8057 24.958 39.2644 24.622C38.7324 24.286 38.3077 23.8147 37.9904 23.208C37.6824 22.592 37.5284 21.8873 37.5284 21.094ZM43.6324 21.122C43.6324 20.646 43.5391 20.24 43.3524 19.904C43.1657 19.5587 42.9137 19.2973 42.5964 19.12C42.2791 18.9333 41.9384 18.84 41.5744 18.84C41.2104 18.84 40.8744 18.9287 40.5664 19.106C40.2584 19.2833 40.0064 19.5447 39.8104 19.89C39.6237 20.226 39.5304 20.6273 39.5304 21.094C39.5304 21.5607 39.6237 21.9713 39.8104 22.326C40.0064 22.6713 40.2584 22.9373 40.5664 23.124C40.8837 23.3107 41.2197 23.404 41.5744 23.404C41.9384 23.404 42.2791 23.3153 42.5964 23.138C42.9137 22.9513 43.1657 22.69 43.3524 22.354C43.5391 22.0087 43.6324 21.598 43.6324 21.122ZM49.4807 18.448C49.7327 18.0373 50.0594 17.7153 50.4607 17.482C50.8714 17.2487 51.338 17.132 51.8607 17.132V19.19H51.3427C50.7267 19.19 50.26 19.3347 49.9427 19.624C49.6347 19.9133 49.4807 20.4173 49.4807 21.136V25H47.5207V17.244H49.4807V18.448ZM57.4788 17.132C58.4028 17.132 59.1495 17.426 59.7188 18.014C60.2882 18.5927 60.5728 19.4047 60.5728 20.45V25H58.6128V20.716C58.6128 20.1 58.4588 19.6287 58.1508 19.302C57.8428 18.966 57.4228 18.798 56.8908 18.798C56.3495 18.798 55.9202 18.966 55.6028 19.302C55.2948 19.6287 55.1408 20.1 55.1408 20.716V25H53.1808V17.244H55.1408V18.21C55.4022 17.874 55.7335 17.6127 56.1348 17.426C56.5455 17.23 56.9935 17.132 57.4788 17.132ZM76.4266 15.228V25H74.4666V18.644L71.8486 25H70.3646L67.7326 18.644V25H65.7726V15.228H67.9986L71.1066 22.494L74.2146 15.228H76.4266ZM81.8084 25.126C81.0618 25.126 80.3898 24.9627 79.7924 24.636C79.1951 24.3 78.7238 23.8287 78.3784 23.222C78.0424 22.6153 77.8744 21.9153 77.8744 21.122C77.8744 20.3287 78.0471 19.6287 78.3924 19.022C78.7471 18.4153 79.2278 17.9487 79.8344 17.622C80.4411 17.286 81.1178 17.118 81.8644 17.118C82.6111 17.118 83.2878 17.286 83.8944 17.622C84.5011 17.9487 84.9771 18.4153 85.3224 19.022C85.6771 19.6287 85.8544 20.3287 85.8544 21.122C85.8544 21.9153 85.6724 22.6153 85.3084 23.222C84.9538 23.8287 84.4684 24.3 83.8524 24.636C83.2458 24.9627 82.5644 25.126 81.8084 25.126ZM81.8084 23.418C82.1631 23.418 82.4944 23.334 82.8024 23.166C83.1198 22.9887 83.3718 22.7273 83.5584 22.382C83.7451 22.0367 83.8384 21.6167 83.8384 21.122C83.8384 20.3847 83.6424 19.82 83.2504 19.428C82.8678 19.0267 82.3964 18.826 81.8364 18.826C81.2764 18.826 80.8051 19.0267 80.4224 19.428C80.0491 19.82 79.8624 20.3847 79.8624 21.122C79.8624 21.8593 80.0444 22.4287 80.4084 22.83C80.7818 23.222 81.2484 23.418 81.8084 23.418ZM89.2522 18.448C89.5042 18.0373 89.8308 17.7153 90.2322 17.482C90.6428 17.2487 91.1095 17.132 91.6322 17.132V19.19H91.1142C90.4982 19.19 90.0315 19.3347 89.7142 19.624C89.4062 19.9133 89.2522 20.4173 89.2522 21.136V25H87.2922V17.244H89.2522V18.448ZM100.162 20.954C100.162 21.234 100.144 21.486 100.106 21.71H94.4363C94.483 22.27 94.679 22.7087 95.0243 23.026C95.3697 23.3433 95.7943 23.502 96.2983 23.502C97.0263 23.502 97.5443 23.1893 97.8523 22.564H99.9663C99.7423 23.3107 99.313 23.9267 98.6783 24.412C98.0437 24.888 97.2643 25.126 96.3403 25.126C95.5937 25.126 94.9217 24.9627 94.3243 24.636C93.7363 24.3 93.2743 23.8287 92.9383 23.222C92.6117 22.6153 92.4483 21.9153 92.4483 21.122C92.4483 20.3193 92.6117 19.6147 92.9383 19.008C93.265 18.4013 93.7223 17.9347 94.3103 17.608C94.8983 17.2813 95.575 17.118 96.3403 17.118C97.0777 17.118 97.7357 17.2767 98.3143 17.594C98.9023 17.9113 99.355 18.364 99.6723 18.952C99.999 19.5307 100.162 20.198 100.162 20.954ZM98.1323 20.394C98.123 19.89 97.941 19.4887 97.5863 19.19C97.2317 18.882 96.7977 18.728 96.2843 18.728C95.799 18.728 95.3883 18.8773 95.0523 19.176C94.7257 19.4653 94.525 19.8713 94.4503 20.394H98.1323Z" fill="black"/>
</g>
<defs>
<clipPath id="clip0_29_37">
<rect width="123" height="40.1658" rx="7.87565" fill="white"/>
</clipPath>
</defs>
</svg>
