<svg width="37" height="38" viewBox="0 0 37 38" fill="none" xmlns="http://www.w3.org/2000/svg">
<path opacity="0.1" fill-rule="evenodd" clip-rule="evenodd" d="M18.5 36.5C28.165 36.5 36 28.665 36 19C36 9.33502 28.165 1.5 18.5 1.5C8.83502 1.5 1 9.33502 1 19C1 28.665 8.83502 36.5 18.5 36.5Z" stroke="white" stroke-width="1.5"/>
<path d="M14.4837 15.4671C15.303 15.4671 15.9672 14.8029 15.9672 13.9835C15.9672 13.1642 15.303 12.5 14.4837 12.5C13.6643 12.5 13.0001 13.1642 13.0001 13.9835C13.0001 14.8029 13.6643 15.4671 14.4837 15.4671Z" fill="white"/>
<path d="M15.7198 16.458H13.2473C13.1108 16.458 13 16.5688 13 16.7053V24.123C13 24.2595 13.1108 24.3703 13.2473 24.3703H15.7198C15.8563 24.3703 15.9671 24.2595 15.9671 24.123V16.7053C15.9671 16.5688 15.8563 16.458 15.7198 16.458Z" fill="white"/>
<path d="M23.088 16.0466C22.0313 15.6847 20.7094 16.0026 19.9167 16.5728C19.8895 16.4665 19.7926 16.3874 19.6774 16.3874H17.2048C17.0683 16.3874 16.9575 16.4981 16.9575 16.6346V24.0524C16.9575 24.1889 17.0683 24.2996 17.2048 24.2996H19.6774C19.8138 24.2996 19.9246 24.1889 19.9246 24.0524V18.7215C20.3242 18.3773 20.839 18.2675 21.2603 18.4465C21.6688 18.6191 21.9027 19.0404 21.9027 19.6017V24.0524C21.9027 24.1889 22.0135 24.2996 22.1499 24.2996H24.6225C24.759 24.2996 24.8698 24.1889 24.8698 24.0524V19.1037C24.8416 17.0718 23.8857 16.3196 23.088 16.0466Z" fill="white"/>
</svg>
