<svg width="72" height="72" viewBox="0 0 72 72" fill="none" xmlns="http://www.w3.org/2000/svg">
<g filter="url(#filter0_i_1408_785)">
<rect width="72" height="72" rx="36" fill="#2EAAE1" fill-opacity="0.01"/>
<g clip-path="url(#clip0_1408_785)">
<path d="M44.4088 50.0394C42.0452 51.2221 40.4599 53.4427 40.0861 56H41.6546C46.4636 56 50.376 52.0876 50.376 47.2786V47.0542C48.8494 47.8181 46.5282 48.9793 44.4088 50.0394Z" fill="black"/>
<path d="M42.9045 48.1843C42.3674 47.9975 41.8453 47.75 41.3474 47.4421C39.5855 46.3527 38.3645 44.6559 37.8828 42.7074C36.0024 43.782 32.7844 45.6211 30.5555 46.8952C29.7177 47.3741 29.1113 48.1574 28.8442 49.0597C30.1635 49.3176 31.3761 49.9604 32.3474 50.9318C33.618 52.2016 34.3469 53.961 34.3469 55.7586V55.9999H37.7207C37.8926 54.4954 38.3938 53.0439 39.1953 51.7471C40.1133 50.2619 41.3889 49.0385 42.9045 48.1843Z" fill="black"/>
<path d="M27.5204 51.2794C26.8722 51.2794 26.3453 50.7539 26.3453 50.1058C26.3453 47.9417 27.5123 45.9309 29.3908 44.8574L41.1196 38.2401C41.7079 37.9216 42.3289 37.6848 42.9657 37.5279C33.6805 32.235 21.5142 39.1729 21.6248 50.1045C21.6247 53.3731 24.2697 56.0001 27.5189 56.0001H31.9996V55.7587C31.9996 53.325 30.0323 51.2794 27.5204 51.2794Z" fill="black"/>
<path d="M42.2369 40.3043L40.0425 41.4926C40.4881 45.1172 44.4359 47.4027 47.8765 45.6806L50.3307 44.4524C49.827 40.5717 45.6006 38.4835 42.2369 40.3043Z" fill="black"/>
<path d="M41.0339 24.4214H30.9667C28.5632 28.2719 31.4536 33.4245 36.0004 33.3827C40.5467 33.4247 43.4379 28.2712 41.0339 24.4214Z" fill="black"/>
<path d="M27.7589 27.4886C27.7589 25.6894 28.3295 23.9791 29.409 22.5428C29.6307 22.2478 29.9782 22.0743 30.3472 22.0743H41.6536C42.0226 22.0743 42.3701 22.2478 42.5918 22.5428C45.3749 26.1033 44.4801 31.5758 40.8978 34.1129C43.1896 34.8137 45.3178 36.0058 47.138 37.6325C47.2761 37.674 47.413 37.7197 47.549 37.7688V27.4886C46.949 12.1705 25.0515 12.1705 24.4519 27.4886V38.0108C26.4364 36.115 28.7371 34.8401 31.1079 34.1164C29.0777 32.6139 27.7589 30.2025 27.7589 27.4886Z" fill="black"/>
</g>
</g>
<defs>
<filter id="filter0_i_1408_785" x="0" y="0" width="72" height="72.5" filterUnits="userSpaceOnUse" color-interpolation-filters="sRGB">
<feFlood flood-opacity="0" result="BackgroundImageFix"/>
<feBlend mode="normal" in="SourceGraphic" in2="BackgroundImageFix" result="shape"/>
<feColorMatrix in="SourceAlpha" type="matrix" values="0 0 0 0 0 0 0 0 0 0 0 0 0 0 0 0 0 0 127 0" result="hardAlpha"/>
<feOffset dy="1"/>
<feGaussianBlur stdDeviation="0.25"/>
<feComposite in2="hardAlpha" operator="arithmetic" k2="-1" k3="1"/>
<feColorMatrix type="matrix" values="0 0 0 0 0.180392 0 0 0 0 0.666667 0 0 0 0 0.882353 0 0 0 1 0"/>
<feBlend mode="normal" in2="shape" result="effect1_innerShadow_1408_785"/>
</filter>
<clipPath id="clip0_1408_785">
<rect width="40" height="40" fill="white" transform="translate(16 16)"/>
</clipPath>
</defs>
</svg>
