<svg width="134" height="41" viewBox="0 0 134 41" fill="none" xmlns="http://www.w3.org/2000/svg">
<rect x="0.5" y="0.5" width="133" height="39.1658" rx="7.37565" stroke="white"/>
<g clip-path="url(#clip0_127_1484)">
<path d="M28.49 20.1C28.49 19.1387 28.7047 18.28 29.134 17.524C29.5727 16.7587 30.1653 16.166 30.912 15.746C31.668 15.3167 32.5127 15.102 33.446 15.102C34.538 15.102 35.4947 15.382 36.316 15.942C37.1373 16.502 37.7113 17.2767 38.038 18.266H35.784C35.56 17.7993 35.2427 17.4493 34.832 17.216C34.4307 16.9827 33.964 16.866 33.432 16.866C32.8627 16.866 32.354 17.0013 31.906 17.272C31.4673 17.5333 31.122 17.9067 30.87 18.392C30.6273 18.8773 30.506 19.4467 30.506 20.1C30.506 20.744 30.6273 21.3133 30.87 21.808C31.122 22.2933 31.4673 22.6713 31.906 22.942C32.354 23.2033 32.8627 23.334 33.432 23.334C33.964 23.334 34.4307 23.2173 34.832 22.984C35.2427 22.7413 35.56 22.3867 35.784 21.92H38.038C37.7113 22.9187 37.1373 23.698 36.316 24.258C35.504 24.8087 34.5473 25.084 33.446 25.084C32.5127 25.084 31.668 24.874 30.912 24.454C30.1653 24.0247 29.5727 23.432 29.134 22.676C28.7047 21.92 28.49 21.0613 28.49 20.1ZM43.1561 25.126C42.4094 25.126 41.7374 24.9627 41.1401 24.636C40.5428 24.3 40.0714 23.8287 39.7261 23.222C39.3901 22.6153 39.2221 21.9153 39.2221 21.122C39.2221 20.3287 39.3948 19.6287 39.7401 19.022C40.0948 18.4153 40.5754 17.9487 41.1821 17.622C41.7888 17.286 42.4654 17.118 43.2121 17.118C43.9588 17.118 44.6354 17.286 45.2421 17.622C45.8488 17.9487 46.3248 18.4153 46.6701 19.022C47.0248 19.6287 47.2021 20.3287 47.2021 21.122C47.2021 21.9153 47.0201 22.6153 46.6561 23.222C46.3014 23.8287 45.8161 24.3 45.2001 24.636C44.5934 24.9627 43.9121 25.126 43.1561 25.126ZM43.1561 23.418C43.5108 23.418 43.8421 23.334 44.1501 23.166C44.4674 22.9887 44.7194 22.7273 44.9061 22.382C45.0928 22.0367 45.1861 21.6167 45.1861 21.122C45.1861 20.3847 44.9901 19.82 44.5981 19.428C44.2154 19.0267 43.7441 18.826 43.1841 18.826C42.6241 18.826 42.1528 19.0267 41.7701 19.428C41.3968 19.82 41.2101 20.3847 41.2101 21.122C41.2101 21.8593 41.3921 22.4287 41.7561 22.83C42.1294 23.222 42.5961 23.418 43.1561 23.418ZM52.9378 17.132C53.8618 17.132 54.6085 17.426 55.1778 18.014C55.7472 18.5927 56.0318 19.4047 56.0318 20.45V25H54.0718V20.716C54.0718 20.1 53.9178 19.6287 53.6098 19.302C53.3018 18.966 52.8818 18.798 52.3498 18.798C51.8085 18.798 51.3792 18.966 51.0618 19.302C50.7538 19.6287 50.5998 20.1 50.5998 20.716V25H48.6398V17.244H50.5998V18.21C50.8612 17.874 51.1925 17.6127 51.5938 17.426C52.0045 17.23 52.4525 17.132 52.9378 17.132ZM60.1777 18.854V22.606C60.1777 22.8673 60.2384 23.0587 60.3597 23.18C60.4904 23.292 60.705 23.348 61.0037 23.348H61.9137V25H60.6817C59.0297 25 58.2037 24.1973 58.2037 22.592V18.854H57.2797V17.244H58.2037V15.326H60.1777V17.244H61.9137V18.854H60.1777ZM62.8194 21.094C62.8194 20.31 62.9734 19.6147 63.2814 19.008C63.5988 18.4013 64.0234 17.9347 64.5554 17.608C65.0968 17.2813 65.6988 17.118 66.3614 17.118C66.9401 17.118 67.4441 17.2347 67.8734 17.468C68.3121 17.7013 68.6621 17.9953 68.9234 18.35V17.244H70.8974V25H68.9234V23.866C68.6714 24.23 68.3214 24.5333 67.8734 24.776C67.4348 25.0093 66.9261 25.126 66.3474 25.126C65.6941 25.126 65.0968 24.958 64.5554 24.622C64.0234 24.286 63.5988 23.8147 63.2814 23.208C62.9734 22.592 62.8194 21.8873 62.8194 21.094ZM68.9234 21.122C68.9234 20.646 68.8301 20.24 68.6434 19.904C68.4568 19.5587 68.2048 19.2973 67.8874 19.12C67.5701 18.9333 67.2294 18.84 66.8654 18.84C66.5014 18.84 66.1654 18.9287 65.8574 19.106C65.5494 19.2833 65.2974 19.5447 65.1014 19.89C64.9148 20.226 64.8214 20.6273 64.8214 21.094C64.8214 21.5607 64.9148 21.9713 65.1014 22.326C65.2974 22.6713 65.5494 22.9373 65.8574 23.124C66.1748 23.3107 66.5108 23.404 66.8654 23.404C67.2294 23.404 67.5701 23.3153 67.8874 23.138C68.2048 22.9513 68.4568 22.69 68.6434 22.354C68.8301 22.0087 68.9234 21.598 68.9234 21.122ZM72.3077 21.122C72.3077 20.3193 72.471 19.6193 72.7977 19.022C73.1244 18.4153 73.577 17.9487 74.1557 17.622C74.7344 17.286 75.397 17.118 76.1437 17.118C77.105 17.118 77.8984 17.3607 78.5237 17.846C79.1584 18.322 79.583 18.994 79.7977 19.862H77.6837C77.5717 19.526 77.3804 19.2647 77.1097 19.078C76.8484 18.882 76.5217 18.784 76.1297 18.784C75.5697 18.784 75.1264 18.9893 74.7997 19.4C74.473 19.8013 74.3097 20.3753 74.3097 21.122C74.3097 21.8593 74.473 22.4333 74.7997 22.844C75.1264 23.2453 75.5697 23.446 76.1297 23.446C76.923 23.446 77.441 23.0913 77.6837 22.382H79.7977C79.583 23.222 79.1584 23.8893 78.5237 24.384C77.889 24.8787 77.0957 25.126 76.1437 25.126C75.397 25.126 74.7344 24.9627 74.1557 24.636C73.577 24.3 73.1244 23.8333 72.7977 23.236C72.471 22.6293 72.3077 21.9247 72.3077 21.122ZM83.5156 18.854V22.606C83.5156 22.8673 83.5762 23.0587 83.6976 23.18C83.8282 23.292 84.0429 23.348 84.3416 23.348H85.2516V25H84.0196C82.3676 25 81.5416 24.1973 81.5416 22.592V18.854H80.6176V17.244H81.5416V15.326H83.5156V17.244H85.2516V18.854H83.5156ZM91.9293 15.228V21.276C91.9293 21.9387 92.1019 22.4473 92.4473 22.802C92.7926 23.1473 93.2779 23.32 93.9033 23.32C94.5379 23.32 95.0279 23.1473 95.3733 22.802C95.7186 22.4473 95.8913 21.9387 95.8913 21.276V15.228H97.8653V21.262C97.8653 22.0927 97.6833 22.7973 97.3193 23.376C96.9646 23.9453 96.4839 24.3747 95.8773 24.664C95.2799 24.9533 94.6126 25.098 93.8753 25.098C93.1473 25.098 92.4846 24.9533 91.8873 24.664C91.2993 24.3747 90.8326 23.9453 90.4873 23.376C90.1419 22.7973 89.9693 22.0927 89.9693 21.262V15.228H91.9293ZM102.727 25.126C102.092 25.126 101.523 25.014 101.019 24.79C100.515 24.5567 100.114 24.244 99.815 23.852C99.5256 23.46 99.367 23.026 99.339 22.55H101.313C101.35 22.8487 101.495 23.096 101.747 23.292C102.008 23.488 102.33 23.586 102.713 23.586C103.086 23.586 103.376 23.5113 103.581 23.362C103.796 23.2127 103.903 23.0213 103.903 22.788C103.903 22.536 103.772 22.3493 103.511 22.228C103.259 22.0973 102.853 21.9573 102.293 21.808C101.714 21.668 101.238 21.5233 100.865 21.374C100.501 21.2247 100.184 20.996 99.913 20.688C99.6516 20.38 99.521 19.9647 99.521 19.442C99.521 19.0127 99.6423 18.6207 99.885 18.266C100.137 17.9113 100.492 17.6313 100.949 17.426C101.416 17.2207 101.962 17.118 102.587 17.118C103.511 17.118 104.248 17.3513 104.799 17.818C105.35 18.2753 105.653 18.896 105.709 19.68H103.833C103.805 19.372 103.674 19.1293 103.441 18.952C103.217 18.7653 102.914 18.672 102.531 18.672C102.176 18.672 101.901 18.7373 101.705 18.868C101.518 18.9987 101.425 19.1807 101.425 19.414C101.425 19.6753 101.556 19.876 101.817 20.016C102.078 20.1467 102.484 20.282 103.035 20.422C103.595 20.562 104.057 20.7067 104.421 20.856C104.785 21.0053 105.098 21.2387 105.359 21.556C105.63 21.864 105.77 22.2747 105.779 22.788C105.779 23.236 105.653 23.6373 105.401 23.992C105.158 24.3467 104.804 24.6267 104.337 24.832C103.88 25.028 103.343 25.126 102.727 25.126Z" fill="white"/>
</g>
<defs>
<clipPath id="clip0_127_1484">
<rect width="134" height="40.1658" rx="7.87565" fill="white"/>
</clipPath>
</defs>
</svg>
