<svg width="904" height="100" viewBox="0 0 904 100" fill="none" xmlns="http://www.w3.org/2000/svg">
<rect x="0.5" y="0.5" width="903" height="99" rx="49.5" stroke="#DEE1E1"/>
<path d="M63.12 41.9029V58.5829H60.384V51.2869H52.536V58.5829H49.8V41.9029H52.536V49.0549H60.384V41.9029H63.12ZM65.5699 51.9109C65.5699 50.5829 65.8419 49.4069 66.3859 48.3829C66.9459 47.3589 67.6979 46.5669 68.6419 46.0069C69.6019 45.4309 70.6579 45.1429 71.8099 45.1429C72.8499 45.1429 73.7539 45.3509 74.5219 45.7669C75.3059 46.1669 75.9299 46.6709 76.3939 47.2789V45.3589H79.1539V58.5829H76.3939V56.6149C75.9299 57.2389 75.2979 57.7589 74.4979 58.1749C73.6979 58.5909 72.7859 58.7989 71.7619 58.7989C70.6259 58.7989 69.5859 58.5109 68.6419 57.9349C67.6979 57.3429 66.9459 56.5269 66.3859 55.4869C65.8419 54.4309 65.5699 53.2389 65.5699 51.9109ZM76.3939 51.9589C76.3939 51.0469 76.2019 50.2549 75.8179 49.5829C75.4499 48.9109 74.9619 48.3989 74.3539 48.0469C73.7459 47.6949 73.0899 47.5189 72.3859 47.5189C71.6819 47.5189 71.0259 47.6949 70.4179 48.0469C69.8099 48.3829 69.3139 48.8869 68.9299 49.5589C68.5619 50.2149 68.3779 50.9989 68.3779 51.9109C68.3779 52.8229 68.5619 53.6229 68.9299 54.3109C69.3139 54.9989 69.8099 55.5269 70.4179 55.8949C71.0419 56.2469 71.6979 56.4229 72.3859 56.4229C73.0899 56.4229 73.7459 56.2469 74.3539 55.8949C74.9619 55.5429 75.4499 55.0309 75.8179 54.3589C76.2019 53.6709 76.3939 52.8709 76.3939 51.9589ZM87.6195 56.1349L91.3635 45.3589H94.2675L89.2275 58.5829H85.9635L80.9475 45.3589H83.8755L87.6195 56.1349ZM97.4876 43.6069C96.9916 43.6069 96.5756 43.4389 96.2396 43.1029C95.9036 42.7669 95.7356 42.3509 95.7356 41.8549C95.7356 41.3589 95.9036 40.9429 96.2396 40.6069C96.5756 40.2709 96.9916 40.1029 97.4876 40.1029C97.9676 40.1029 98.3756 40.2709 98.7116 40.6069C99.0476 40.9429 99.2156 41.3589 99.2156 41.8549C99.2156 42.3509 99.0476 42.7669 98.7116 43.1029C98.3756 43.4389 97.9676 43.6069 97.4876 43.6069ZM98.8316 45.3589V58.5829H96.0956V45.3589H98.8316ZM108.856 45.1429C109.896 45.1429 110.824 45.3589 111.64 45.7909C112.472 46.2229 113.12 46.8629 113.584 47.7109C114.048 48.5589 114.28 49.5829 114.28 50.7829V58.5829H111.568V51.1909C111.568 50.0069 111.272 49.1029 110.68 48.4789C110.088 47.8389 109.28 47.5189 108.256 47.5189C107.232 47.5189 106.416 47.8389 105.808 48.4789C105.216 49.1029 104.92 50.0069 104.92 51.1909V58.5829H102.184V45.3589H104.92V46.8709C105.368 46.3269 105.936 45.9029 106.624 45.5989C107.328 45.2949 108.072 45.1429 108.856 45.1429ZM122.858 45.1429C123.882 45.1429 124.786 45.3509 125.57 45.7669C126.37 46.1669 126.994 46.6709 127.442 47.2789V45.3589H130.202V58.7989C130.202 60.0149 129.946 61.0949 129.434 62.0389C128.922 62.9989 128.178 63.7509 127.202 64.2949C126.242 64.8389 125.09 65.1109 123.746 65.1109C121.954 65.1109 120.466 64.6869 119.282 63.8389C118.098 63.0069 117.426 61.8709 117.266 60.4309H119.978C120.186 61.1189 120.626 61.6709 121.298 62.0869C121.986 62.5189 122.802 62.7349 123.746 62.7349C124.85 62.7349 125.738 62.3989 126.41 61.7269C127.098 61.0549 127.442 60.0789 127.442 58.7989V56.5909C126.978 57.2149 126.346 57.7429 125.546 58.1749C124.762 58.5909 123.866 58.7989 122.858 58.7989C121.706 58.7989 120.65 58.5109 119.69 57.9349C118.746 57.3429 117.994 56.5269 117.434 55.4869C116.89 54.4309 116.618 53.2389 116.618 51.9109C116.618 50.5829 116.89 49.4069 117.434 48.3829C117.994 47.3589 118.746 46.5669 119.69 46.0069C120.65 45.4309 121.706 45.1429 122.858 45.1429ZM127.442 51.9589C127.442 51.0469 127.25 50.2549 126.866 49.5829C126.498 48.9109 126.01 48.3989 125.402 48.0469C124.794 47.6949 124.138 47.5189 123.434 47.5189C122.73 47.5189 122.074 47.6949 121.466 48.0469C120.858 48.3829 120.362 48.8869 119.978 49.5589C119.61 50.2149 119.426 50.9989 119.426 51.9109C119.426 52.8229 119.61 53.6229 119.978 54.3109C120.362 54.9989 120.858 55.5269 121.466 55.8949C122.09 56.2469 122.746 56.4229 123.434 56.4229C124.138 56.4229 124.794 56.2469 125.402 55.8949C126.01 55.5429 126.498 55.0309 126.866 54.3589C127.25 53.6709 127.442 52.8709 127.442 51.9589ZM149.606 55.1749H142.622L141.422 58.5829H138.566L144.542 41.8789H147.71L153.686 58.5829H150.806L149.606 55.1749ZM148.838 52.9429L146.126 45.1909L143.39 52.9429H148.838ZM162.716 45.1429C163.756 45.1429 164.684 45.3589 165.5 45.7909C166.332 46.2229 166.98 46.8629 167.444 47.7109C167.908 48.5589 168.14 49.5829 168.14 50.7829V58.5829H165.428V51.1909C165.428 50.0069 165.132 49.1029 164.54 48.4789C163.948 47.8389 163.14 47.5189 162.116 47.5189C161.092 47.5189 160.276 47.8389 159.668 48.4789C159.076 49.1029 158.78 50.0069 158.78 51.1909V58.5829H156.044V45.3589H158.78V46.8709C159.228 46.3269 159.796 45.9029 160.484 45.5989C161.188 45.2949 161.932 45.1429 162.716 45.1429ZM183.294 45.3589L175.182 64.7989H172.35L175.038 58.3669L169.83 45.3589H172.878L176.598 55.4389L180.462 45.3589H183.294ZM193.849 44.1109V49.0069H199.609V51.2389H193.849V56.3509H200.329V58.5829H191.113V41.8789H200.329V44.1109H193.849ZM210.131 45.1429C211.171 45.1429 212.099 45.3589 212.915 45.7909C213.747 46.2229 214.395 46.8629 214.859 47.7109C215.323 48.5589 215.555 49.5829 215.555 50.7829V58.5829H212.843V51.1909C212.843 50.0069 212.547 49.1029 211.955 48.4789C211.363 47.8389 210.555 47.5189 209.531 47.5189C208.507 47.5189 207.691 47.8389 207.083 48.4789C206.491 49.1029 206.195 50.0069 206.195 51.1909V58.5829H203.459V45.3589H206.195V46.8709C206.643 46.3269 207.211 45.9029 207.899 45.5989C208.603 45.2949 209.347 45.1429 210.131 45.1429ZM217.893 51.9109C217.893 50.5829 218.165 49.4069 218.709 48.3829C219.269 47.3589 220.021 46.5669 220.965 46.0069C221.925 45.4309 222.989 45.1429 224.157 45.1429C225.181 45.1429 226.085 45.3509 226.869 45.7669C227.669 46.1829 228.285 46.6869 228.717 47.2789V45.3589H231.477V64.8709H228.717V56.6629C228.285 57.2549 227.661 57.7589 226.845 58.1749C226.029 58.5909 225.101 58.7989 224.061 58.7989C222.925 58.7989 221.885 58.5109 220.941 57.9349C220.013 57.3429 219.269 56.5269 218.709 55.4869C218.165 54.4309 217.893 53.2389 217.893 51.9109ZM228.717 51.9589C228.717 51.0469 228.525 50.2549 228.141 49.5829C227.773 48.9109 227.285 48.3989 226.677 48.0469C226.069 47.6949 225.413 47.5189 224.709 47.5189C224.005 47.5189 223.349 47.6949 222.741 48.0469C222.133 48.3829 221.637 48.8869 221.253 49.5589C220.885 50.2149 220.701 50.9989 220.701 51.9109C220.701 52.8229 220.885 53.6229 221.253 54.3109C221.637 54.9989 222.133 55.5269 222.741 55.8949C223.365 56.2469 224.021 56.4229 224.709 56.4229C225.413 56.4229 226.069 56.2469 226.677 55.8949C227.285 55.5429 227.773 55.0309 228.141 54.3589C228.525 53.6709 228.717 52.8709 228.717 51.9589ZM246.807 45.3589V58.5829H244.071V57.0229C243.639 57.5669 243.071 57.9989 242.367 58.3189C241.679 58.6229 240.943 58.7749 240.159 58.7749C239.119 58.7749 238.183 58.5589 237.351 58.1269C236.535 57.6949 235.887 57.0549 235.407 56.2069C234.943 55.3589 234.711 54.3349 234.711 53.1349V45.3589H237.423V52.7269C237.423 53.9109 237.719 54.8229 238.311 55.4629C238.903 56.0869 239.711 56.3989 240.735 56.3989C241.759 56.3989 242.567 56.0869 243.159 55.4629C243.767 54.8229 244.071 53.9109 244.071 52.7269V45.3589H246.807ZM251.569 43.6069C251.073 43.6069 250.657 43.4389 250.321 43.1029C249.985 42.7669 249.817 42.3509 249.817 41.8549C249.817 41.3589 249.985 40.9429 250.321 40.6069C250.657 40.2709 251.073 40.1029 251.569 40.1029C252.049 40.1029 252.457 40.2709 252.793 40.6069C253.129 40.9429 253.297 41.3589 253.297 41.8549C253.297 42.3509 253.129 42.7669 252.793 43.1029C252.457 43.4389 252.049 43.6069 251.569 43.6069ZM252.913 45.3589V58.5829H250.177V45.3589H252.913ZM259.001 47.2789C259.401 46.6069 259.929 46.0869 260.585 45.7189C261.257 45.3349 262.049 45.1429 262.961 45.1429V47.9749H262.265C261.193 47.9749 260.377 48.2469 259.817 48.7909C259.273 49.3349 259.001 50.2789 259.001 51.6229V58.5829H256.265V45.3589H259.001V47.2789ZM277.356 51.6469C277.356 52.1429 277.324 52.5909 277.26 52.9909H267.156C267.236 54.0469 267.628 54.8949 268.332 55.5349C269.036 56.1749 269.9 56.4949 270.924 56.4949C272.396 56.4949 273.436 55.8789 274.044 54.6469H276.996C276.596 55.8629 275.868 56.8629 274.812 57.6469C273.772 58.4149 272.476 58.7989 270.924 58.7989C269.66 58.7989 268.524 58.5189 267.516 57.9589C266.524 57.3829 265.74 56.5829 265.164 55.5589C264.604 54.5189 264.324 53.3189 264.324 51.9589C264.324 50.5989 264.596 49.4069 265.14 48.3829C265.7 47.3429 266.476 46.5429 267.468 45.9829C268.476 45.4229 269.628 45.1429 270.924 45.1429C272.172 45.1429 273.284 45.4149 274.26 45.9589C275.236 46.5029 275.996 47.2709 276.54 48.2629C277.084 49.2389 277.356 50.3669 277.356 51.6469ZM274.5 50.7829C274.484 49.7749 274.124 48.9669 273.42 48.3589C272.716 47.7509 271.844 47.4469 270.804 47.4469C269.86 47.4469 269.052 47.7509 268.38 48.3589C267.708 48.9509 267.308 49.7589 267.18 50.7829H274.5ZM284.608 58.7989C283.568 58.7989 282.632 58.6149 281.8 58.2469C280.984 57.8629 280.336 57.3509 279.856 56.7109C279.376 56.0549 279.12 55.3269 279.088 54.5269H281.92C281.968 55.0869 282.232 55.5589 282.712 55.9429C283.208 56.3109 283.824 56.4949 284.56 56.4949C285.328 56.4949 285.92 56.3509 286.336 56.0629C286.768 55.7589 286.984 55.3749 286.984 54.9109C286.984 54.4149 286.744 54.0469 286.264 53.8069C285.8 53.5669 285.056 53.3029 284.032 53.0149C283.04 52.7429 282.232 52.4789 281.608 52.2229C280.984 51.9669 280.44 51.5749 279.976 51.0469C279.528 50.5189 279.304 49.8229 279.304 48.9589C279.304 48.2549 279.512 47.6149 279.928 47.0389C280.344 46.4469 280.936 45.9829 281.704 45.6469C282.488 45.3109 283.384 45.1429 284.392 45.1429C285.896 45.1429 287.104 45.5269 288.016 46.2949C288.944 47.0469 289.44 48.0789 289.504 49.3909H286.768C286.72 48.7989 286.48 48.3269 286.048 47.9749C285.616 47.6229 285.032 47.4469 284.296 47.4469C283.576 47.4469 283.024 47.5829 282.64 47.8549C282.256 48.1269 282.064 48.4869 282.064 48.9349C282.064 49.2869 282.192 49.5829 282.448 49.8229C282.704 50.0629 283.016 50.2549 283.384 50.3989C283.752 50.5269 284.296 50.6949 285.016 50.9029C285.976 51.1589 286.76 51.4229 287.368 51.6949C287.992 51.9509 288.528 52.3349 288.976 52.8469C289.424 53.3589 289.656 54.0389 289.672 54.8869C289.672 55.6389 289.464 56.3109 289.048 56.9029C288.632 57.4949 288.04 57.9589 287.272 58.2949C286.52 58.6309 285.632 58.7989 284.608 58.7989ZM307.263 35.9269L300.735 62.7829H298.047L304.551 35.9269H307.263ZM338.185 41.9029L333.241 58.5829H330.145L326.641 45.9589L322.921 58.5829L319.849 58.6069L315.121 41.9029H318.025L321.481 55.4869L325.225 41.9029H328.297L331.777 55.4149L335.257 41.9029H338.185ZM339.29 51.9109C339.29 50.5829 339.562 49.4069 340.106 48.3829C340.666 47.3589 341.418 46.5669 342.362 46.0069C343.322 45.4309 344.378 45.1429 345.53 45.1429C346.57 45.1429 347.474 45.3509 348.242 45.7669C349.026 46.1669 349.65 46.6709 350.114 47.2789V45.3589H352.874V58.5829H350.114V56.6149C349.65 57.2389 349.018 57.7589 348.218 58.1749C347.418 58.5909 346.506 58.7989 345.482 58.7989C344.346 58.7989 343.306 58.5109 342.362 57.9349C341.418 57.3429 340.666 56.5269 340.106 55.4869C339.562 54.4309 339.29 53.2389 339.29 51.9109ZM350.114 51.9589C350.114 51.0469 349.922 50.2549 349.538 49.5829C349.17 48.9109 348.682 48.3989 348.074 48.0469C347.466 47.6949 346.81 47.5189 346.106 47.5189C345.402 47.5189 344.746 47.6949 344.138 48.0469C343.53 48.3829 343.034 48.8869 342.65 49.5589C342.282 50.2149 342.098 50.9989 342.098 51.9109C342.098 52.8229 342.282 53.6229 342.65 54.3109C343.034 54.9989 343.53 55.5269 344.138 55.8949C344.762 56.2469 345.418 56.4229 346.106 56.4229C346.81 56.4229 347.466 56.2469 348.074 55.8949C348.682 55.5429 349.17 55.0309 349.538 54.3589C349.922 53.6709 350.114 52.8709 350.114 51.9589ZM362.899 45.1429C363.939 45.1429 364.867 45.3589 365.683 45.7909C366.515 46.2229 367.163 46.8629 367.627 47.7109C368.091 48.5589 368.323 49.5829 368.323 50.7829V58.5829H365.611V51.1909C365.611 50.0069 365.315 49.1029 364.723 48.4789C364.131 47.8389 363.323 47.5189 362.299 47.5189C361.275 47.5189 360.459 47.8389 359.851 48.4789C359.259 49.1029 358.963 50.0069 358.963 51.1909V58.5829H356.227V45.3589H358.963V46.8709C359.411 46.3269 359.979 45.9029 360.667 45.5989C361.371 45.2949 362.115 45.1429 362.899 45.1429ZM374.765 47.5909V54.9109C374.765 55.4069 374.877 55.7669 375.101 55.9909C375.341 56.1989 375.741 56.3029 376.301 56.3029H377.981V58.5829H375.821C374.589 58.5829 373.645 58.2949 372.989 57.7189C372.333 57.1429 372.005 56.2069 372.005 54.9109V47.5909H370.445V45.3589H372.005V42.0709H374.765V45.3589H377.981V47.5909H374.765ZM389.449 47.5909V54.9109C389.449 55.4069 389.561 55.7669 389.785 55.9909C390.025 56.1989 390.425 56.3029 390.985 56.3029H392.665V58.5829H390.505C389.273 58.5829 388.329 58.2949 387.673 57.7189C387.017 57.1429 386.689 56.2069 386.689 54.9109V47.5909H385.129V45.3589H386.689V42.0709H389.449V45.3589H392.665V47.5909H389.449ZM400.683 58.7989C399.435 58.7989 398.307 58.5189 397.299 57.9589C396.291 57.3829 395.499 56.5829 394.923 55.5589C394.347 54.5189 394.059 53.3189 394.059 51.9589C394.059 50.6149 394.355 49.4229 394.947 48.3829C395.539 47.3429 396.347 46.5429 397.371 45.9829C398.395 45.4229 399.539 45.1429 400.803 45.1429C402.067 45.1429 403.211 45.4229 404.235 45.9829C405.259 46.5429 406.067 47.3429 406.659 48.3829C407.251 49.4229 407.547 50.6149 407.547 51.9589C407.547 53.3029 407.243 54.4949 406.635 55.5349C406.027 56.5749 405.195 57.3829 404.139 57.9589C403.099 58.5189 401.947 58.7989 400.683 58.7989ZM400.683 56.4229C401.387 56.4229 402.043 56.2549 402.651 55.9189C403.275 55.5829 403.779 55.0789 404.163 54.4069C404.547 53.7349 404.739 52.9189 404.739 51.9589C404.739 50.9989 404.555 50.1909 404.187 49.5349C403.819 48.8629 403.331 48.3589 402.723 48.0229C402.115 47.6869 401.459 47.5189 400.755 47.5189C400.051 47.5189 399.395 47.6869 398.787 48.0229C398.195 48.3589 397.723 48.8629 397.371 49.5349C397.019 50.1909 396.843 50.9989 396.843 51.9589C396.843 53.3829 397.203 54.4869 397.923 55.2709C398.659 56.0389 399.579 56.4229 400.683 56.4229ZM418.742 47.2789C419.142 46.6069 419.67 46.0869 420.326 45.7189C420.998 45.3349 421.79 45.1429 422.702 45.1429V47.9749H422.006C420.934 47.9749 420.118 48.2469 419.558 48.7909C419.014 49.3349 418.742 50.2789 418.742 51.6229V58.5829H416.006V45.3589H418.742V47.2789ZM437.097 51.6469C437.097 52.1429 437.065 52.5909 437.001 52.9909H426.897C426.977 54.0469 427.369 54.8949 428.073 55.5349C428.777 56.1749 429.641 56.4949 430.665 56.4949C432.137 56.4949 433.177 55.8789 433.785 54.6469H436.737C436.337 55.8629 435.609 56.8629 434.553 57.6469C433.513 58.4149 432.217 58.7989 430.665 58.7989C429.401 58.7989 428.265 58.5189 427.257 57.9589C426.265 57.3829 425.481 56.5829 424.905 55.5589C424.345 54.5189 424.065 53.3189 424.065 51.9589C424.065 50.5989 424.337 49.4069 424.881 48.3829C425.441 47.3429 426.217 46.5429 427.209 45.9829C428.217 45.4229 429.369 45.1429 430.665 45.1429C431.913 45.1429 433.025 45.4149 434.001 45.9589C434.977 46.5029 435.737 47.2709 436.281 48.2629C436.825 49.2389 437.097 50.3669 437.097 51.6469ZM434.241 50.7829C434.225 49.7749 433.865 48.9669 433.161 48.3589C432.457 47.7509 431.585 47.4469 430.545 47.4469C429.601 47.4469 428.793 47.7509 428.121 48.3589C427.449 48.9509 427.049 49.7589 426.921 50.7829H434.241ZM438.638 51.9109C438.638 50.5829 438.91 49.4069 439.454 48.3829C440.014 47.3589 440.766 46.5669 441.71 46.0069C442.67 45.4309 443.726 45.1429 444.878 45.1429C445.918 45.1429 446.822 45.3509 447.59 45.7669C448.374 46.1669 448.998 46.6709 449.462 47.2789V45.3589H452.222V58.5829H449.462V56.6149C448.998 57.2389 448.366 57.7589 447.566 58.1749C446.766 58.5909 445.854 58.7989 444.83 58.7989C443.694 58.7989 442.654 58.5109 441.71 57.9349C440.766 57.3429 440.014 56.5269 439.454 55.4869C438.91 54.4309 438.638 53.2389 438.638 51.9109ZM449.462 51.9589C449.462 51.0469 449.27 50.2549 448.886 49.5829C448.518 48.9109 448.03 48.3989 447.422 48.0469C446.814 47.6949 446.158 47.5189 445.454 47.5189C444.75 47.5189 444.094 47.6949 443.486 48.0469C442.878 48.3829 442.382 48.8869 441.998 49.5589C441.63 50.2149 441.446 50.9989 441.446 51.9109C441.446 52.8229 441.63 53.6229 441.998 54.3109C442.382 54.9989 442.878 55.5269 443.486 55.8949C444.11 56.2469 444.766 56.4229 445.454 56.4229C446.158 56.4229 446.814 56.2469 447.422 55.8949C448.03 55.5429 448.518 55.0309 448.886 54.3589C449.27 53.6709 449.462 52.8709 449.462 51.9589ZM454.663 51.9589C454.663 50.5989 454.935 49.4069 455.479 48.3829C456.039 47.3429 456.807 46.5429 457.783 45.9829C458.759 45.4229 459.879 45.1429 461.143 45.1429C462.743 45.1429 464.063 45.5269 465.103 46.2949C466.159 47.0469 466.871 48.1269 467.239 49.5349H464.287C464.047 48.8789 463.663 48.3669 463.135 47.9989C462.607 47.6309 461.943 47.4469 461.143 47.4469C460.023 47.4469 459.127 47.8469 458.455 48.6469C457.799 49.4309 457.471 50.5349 457.471 51.9589C457.471 53.3829 457.799 54.4949 458.455 55.2949C459.127 56.0949 460.023 56.4949 461.143 56.4949C462.727 56.4949 463.775 55.7989 464.287 54.4069H467.239C466.855 55.7509 466.135 56.8229 465.079 57.6229C464.023 58.4069 462.711 58.7989 461.143 58.7989C459.879 58.7989 458.759 58.5189 457.783 57.9589C456.807 57.3829 456.039 56.5829 455.479 55.5589C454.935 54.5189 454.663 53.3189 454.663 51.9589ZM476.566 45.1429C477.574 45.1429 478.47 45.3589 479.254 45.7909C480.054 46.2229 480.678 46.8629 481.126 47.7109C481.59 48.5589 481.822 49.5829 481.822 50.7829V58.5829H479.11V51.1909C479.11 50.0069 478.814 49.1029 478.222 48.4789C477.63 47.8389 476.822 47.5189 475.798 47.5189C474.774 47.5189 473.958 47.8389 473.35 48.4789C472.758 49.1029 472.462 50.0069 472.462 51.1909V58.5829H469.726V40.8229H472.462V46.8949C472.926 46.3349 473.51 45.9029 474.214 45.5989C474.934 45.2949 475.718 45.1429 476.566 45.1429ZM503.042 45.3589V58.5829H500.306V57.0229C499.874 57.5669 499.306 57.9989 498.602 58.3189C497.914 58.6229 497.178 58.7749 496.394 58.7749C495.354 58.7749 494.418 58.5589 493.586 58.1269C492.77 57.6949 492.122 57.0549 491.642 56.2069C491.178 55.3589 490.946 54.3349 490.946 53.1349V45.3589H493.658V52.7269C493.658 53.9109 493.954 54.8229 494.546 55.4629C495.138 56.0869 495.946 56.3989 496.97 56.3989C497.994 56.3989 498.802 56.0869 499.394 55.4629C500.002 54.8229 500.306 53.9109 500.306 52.7269V45.3589H503.042ZM511.212 58.7989C510.172 58.7989 509.236 58.6149 508.404 58.2469C507.588 57.8629 506.94 57.3509 506.46 56.7109C505.98 56.0549 505.724 55.3269 505.692 54.5269H508.524C508.572 55.0869 508.836 55.5589 509.316 55.9429C509.812 56.3109 510.428 56.4949 511.164 56.4949C511.932 56.4949 512.524 56.3509 512.94 56.0629C513.372 55.7589 513.588 55.3749 513.588 54.9109C513.588 54.4149 513.348 54.0469 512.868 53.8069C512.404 53.5669 511.66 53.3029 510.636 53.0149C509.644 52.7429 508.836 52.4789 508.212 52.2229C507.588 51.9669 507.044 51.5749 506.58 51.0469C506.132 50.5189 505.908 49.8229 505.908 48.9589C505.908 48.2549 506.116 47.6149 506.532 47.0389C506.948 46.4469 507.54 45.9829 508.308 45.6469C509.092 45.3109 509.988 45.1429 510.996 45.1429C512.5 45.1429 513.708 45.5269 514.62 46.2949C515.548 47.0469 516.044 48.0789 516.108 49.3909H513.372C513.324 48.7989 513.084 48.3269 512.652 47.9749C512.22 47.6229 511.636 47.4469 510.9 47.4469C510.18 47.4469 509.628 47.5829 509.244 47.8549C508.86 48.1269 508.668 48.4869 508.668 48.9349C508.668 49.2869 508.796 49.5829 509.052 49.8229C509.308 50.0629 509.62 50.2549 509.988 50.3989C510.356 50.5269 510.9 50.6949 511.62 50.9029C512.58 51.1589 513.364 51.4229 513.972 51.6949C514.596 51.9509 515.132 52.3349 515.58 52.8469C516.028 53.3589 516.26 54.0389 516.276 54.8869C516.276 55.6389 516.068 56.3109 515.652 56.9029C515.236 57.4949 514.644 57.9589 513.876 58.2949C513.124 58.6309 512.236 58.7989 511.212 58.7989ZM523.481 41.6629C525.113 41.6629 526.417 42.1109 527.393 43.0069C528.385 43.9029 528.881 45.1269 528.881 46.6789C528.881 48.2949 528.369 49.5109 527.345 50.3269C526.321 51.1429 524.961 51.5509 523.265 51.5509L523.169 53.4469H520.793L520.673 49.6789H521.465C523.017 49.6789 524.201 49.4709 525.017 49.0549C525.849 48.6389 526.265 47.8469 526.265 46.6789C526.265 45.8309 526.017 45.1669 525.521 44.6869C525.041 44.2069 524.369 43.9669 523.505 43.9669C522.641 43.9669 521.961 44.1989 521.465 44.6629C520.969 45.1269 520.721 45.7749 520.721 46.6069H518.153C518.153 45.6469 518.369 44.7909 518.801 44.0389C519.233 43.2869 519.849 42.7029 520.649 42.2869C521.465 41.8709 522.409 41.6629 523.481 41.6629ZM521.945 58.7509C521.449 58.7509 521.033 58.5829 520.697 58.2469C520.361 57.9109 520.193 57.4949 520.193 56.9989C520.193 56.5029 520.361 56.0869 520.697 55.7509C521.033 55.4149 521.449 55.2469 521.945 55.2469C522.425 55.2469 522.833 55.4149 523.169 55.7509C523.505 56.0869 523.673 56.5029 523.673 56.9989C523.673 57.4949 523.505 57.9109 523.169 58.2469C522.833 58.5829 522.425 58.7509 521.945 58.7509Z" fill="#898989"/>
<rect x="733.394" y="30.3938" width="122.212" height="39.3782" rx="7.48186" stroke="black" stroke-width="0.787565"/>
<g clip-path="url(#clip0_127_1469)">
<path d="M755.49 50.1C755.49 49.1387 755.705 48.28 756.134 47.524C756.573 46.7587 757.165 46.166 757.912 45.746C758.668 45.3167 759.513 45.102 760.446 45.102C761.538 45.102 762.495 45.382 763.316 45.942C764.137 46.502 764.711 47.2767 765.038 48.266H762.784C762.56 47.7993 762.243 47.4493 761.832 47.216C761.431 46.9827 760.964 46.866 760.432 46.866C759.863 46.866 759.354 47.0013 758.906 47.272C758.467 47.5333 758.122 47.9067 757.87 48.392C757.627 48.8773 757.506 49.4467 757.506 50.1C757.506 50.744 757.627 51.3133 757.87 51.808C758.122 52.2933 758.467 52.6713 758.906 52.942C759.354 53.2033 759.863 53.334 760.432 53.334C760.964 53.334 761.431 53.2173 761.832 52.984C762.243 52.7413 762.56 52.3867 762.784 51.92H765.038C764.711 52.9187 764.137 53.698 763.316 54.258C762.504 54.8087 761.547 55.084 760.446 55.084C759.513 55.084 758.668 54.874 757.912 54.454C757.165 54.0247 756.573 53.432 756.134 52.676C755.705 51.92 755.49 51.0613 755.49 50.1ZM770.156 55.126C769.409 55.126 768.737 54.9627 768.14 54.636C767.543 54.3 767.071 53.8287 766.726 53.222C766.39 52.6153 766.222 51.9153 766.222 51.122C766.222 50.3287 766.395 49.6287 766.74 49.022C767.095 48.4153 767.575 47.9487 768.182 47.622C768.789 47.286 769.465 47.118 770.212 47.118C770.959 47.118 771.635 47.286 772.242 47.622C772.849 47.9487 773.325 48.4153 773.67 49.022C774.025 49.6287 774.202 50.3287 774.202 51.122C774.202 51.9153 774.02 52.6153 773.656 53.222C773.301 53.8287 772.816 54.3 772.2 54.636C771.593 54.9627 770.912 55.126 770.156 55.126ZM770.156 53.418C770.511 53.418 770.842 53.334 771.15 53.166C771.467 52.9887 771.719 52.7273 771.906 52.382C772.093 52.0367 772.186 51.6167 772.186 51.122C772.186 50.3847 771.99 49.82 771.598 49.428C771.215 49.0267 770.744 48.826 770.184 48.826C769.624 48.826 769.153 49.0267 768.77 49.428C768.397 49.82 768.21 50.3847 768.21 51.122C768.21 51.8593 768.392 52.4287 768.756 52.83C769.129 53.222 769.596 53.418 770.156 53.418ZM779.938 47.132C780.862 47.132 781.608 47.426 782.178 48.014C782.747 48.5927 783.032 49.4047 783.032 50.45V55H781.072V50.716C781.072 50.1 780.918 49.6287 780.61 49.302C780.302 48.966 779.882 48.798 779.35 48.798C778.808 48.798 778.379 48.966 778.062 49.302C777.754 49.6287 777.6 50.1 777.6 50.716V55H775.64V47.244H777.6V48.21C777.861 47.874 778.192 47.6127 778.594 47.426C779.004 47.23 779.452 47.132 779.938 47.132ZM787.178 48.854V52.606C787.178 52.8673 787.238 53.0587 787.36 53.18C787.49 53.292 787.705 53.348 788.004 53.348H788.914V55H787.682C786.03 55 785.204 54.1973 785.204 52.592V48.854H784.28V47.244H785.204V45.326H787.178V47.244H788.914V48.854H787.178ZM789.819 51.094C789.819 50.31 789.973 49.6147 790.281 49.008C790.599 48.4013 791.023 47.9347 791.555 47.608C792.097 47.2813 792.699 47.118 793.361 47.118C793.94 47.118 794.444 47.2347 794.873 47.468C795.312 47.7013 795.662 47.9953 795.923 48.35V47.244H797.897V55H795.923V53.866C795.671 54.23 795.321 54.5333 794.873 54.776C794.435 55.0093 793.926 55.126 793.347 55.126C792.694 55.126 792.097 54.958 791.555 54.622C791.023 54.286 790.599 53.8147 790.281 53.208C789.973 52.592 789.819 51.8873 789.819 51.094ZM795.923 51.122C795.923 50.646 795.83 50.24 795.643 49.904C795.457 49.5587 795.205 49.2973 794.887 49.12C794.57 48.9333 794.229 48.84 793.865 48.84C793.501 48.84 793.165 48.9287 792.857 49.106C792.549 49.2833 792.297 49.5447 792.101 49.89C791.915 50.226 791.821 50.6273 791.821 51.094C791.821 51.5607 791.915 51.9713 792.101 52.326C792.297 52.6713 792.549 52.9373 792.857 53.124C793.175 53.3107 793.511 53.404 793.865 53.404C794.229 53.404 794.57 53.3153 794.887 53.138C795.205 52.9513 795.457 52.69 795.643 52.354C795.83 52.0087 795.923 51.598 795.923 51.122ZM799.308 51.122C799.308 50.3193 799.471 49.6193 799.798 49.022C800.124 48.4153 800.577 47.9487 801.156 47.622C801.734 47.286 802.397 47.118 803.144 47.118C804.105 47.118 804.898 47.3607 805.524 47.846C806.158 48.322 806.583 48.994 806.798 49.862H804.684C804.572 49.526 804.38 49.2647 804.11 49.078C803.848 48.882 803.522 48.784 803.13 48.784C802.57 48.784 802.126 48.9893 801.8 49.4C801.473 49.8013 801.31 50.3753 801.31 51.122C801.31 51.8593 801.473 52.4333 801.8 52.844C802.126 53.2453 802.57 53.446 803.13 53.446C803.923 53.446 804.441 53.0913 804.684 52.382H806.798C806.583 53.222 806.158 53.8893 805.524 54.384C804.889 54.8787 804.096 55.126 803.144 55.126C802.397 55.126 801.734 54.9627 801.156 54.636C800.577 54.3 800.124 53.8333 799.798 53.236C799.471 52.6293 799.308 51.9247 799.308 51.122ZM810.516 48.854V52.606C810.516 52.8673 810.576 53.0587 810.698 53.18C810.828 53.292 811.043 53.348 811.342 53.348H812.252V55H811.02C809.368 55 808.542 54.1973 808.542 52.592V48.854H807.618V47.244H808.542V45.326H810.516V47.244H812.252V48.854H810.516ZM818.929 45.228V51.276C818.929 51.9387 819.102 52.4473 819.447 52.802C819.793 53.1473 820.278 53.32 820.903 53.32C821.538 53.32 822.028 53.1473 822.373 52.802C822.719 52.4473 822.891 51.9387 822.891 51.276V45.228H824.865V51.262C824.865 52.0927 824.683 52.7973 824.319 53.376C823.965 53.9453 823.484 54.3747 822.877 54.664C822.28 54.9533 821.613 55.098 820.875 55.098C820.147 55.098 819.485 54.9533 818.887 54.664C818.299 54.3747 817.833 53.9453 817.487 53.376C817.142 52.7973 816.969 52.0927 816.969 51.262V45.228H818.929ZM829.727 55.126C829.092 55.126 828.523 55.014 828.019 54.79C827.515 54.5567 827.114 54.244 826.815 53.852C826.526 53.46 826.367 53.026 826.339 52.55H828.313C828.35 52.8487 828.495 53.096 828.747 53.292C829.008 53.488 829.33 53.586 829.713 53.586C830.086 53.586 830.376 53.5113 830.581 53.362C830.796 53.2127 830.903 53.0213 830.903 52.788C830.903 52.536 830.772 52.3493 830.511 52.228C830.259 52.0973 829.853 51.9573 829.293 51.808C828.714 51.668 828.238 51.5233 827.865 51.374C827.501 51.2247 827.184 50.996 826.913 50.688C826.652 50.38 826.521 49.9647 826.521 49.442C826.521 49.0127 826.642 48.6207 826.885 48.266C827.137 47.9113 827.492 47.6313 827.949 47.426C828.416 47.2207 828.962 47.118 829.587 47.118C830.511 47.118 831.248 47.3513 831.799 47.818C832.35 48.2753 832.653 48.896 832.709 49.68H830.833C830.805 49.372 830.674 49.1293 830.441 48.952C830.217 48.7653 829.914 48.672 829.531 48.672C829.176 48.672 828.901 48.7373 828.705 48.868C828.518 48.9987 828.425 49.1807 828.425 49.414C828.425 49.6753 828.556 49.876 828.817 50.016C829.078 50.1467 829.484 50.282 830.035 50.422C830.595 50.562 831.057 50.7067 831.421 50.856C831.785 51.0053 832.098 51.2387 832.359 51.556C832.63 51.864 832.77 52.2747 832.779 52.788C832.779 53.236 832.653 53.6373 832.401 53.992C832.158 54.3467 831.804 54.6267 831.337 54.832C830.88 55.028 830.343 55.126 829.727 55.126Z" fill="black"/>
</g>
<defs>
<clipPath id="clip0_127_1469">
<rect x="733" y="30" width="123" height="40.1658" rx="7.87565" fill="white"/>
</clipPath>
</defs>
</svg>
