<svg width="123" height="41" viewBox="0 0 123 41" fill="none" xmlns="http://www.w3.org/2000/svg">
<g clip-path="url(#clip0_73_2072)">
<path d="M42.34 25.098C41.6587 25.098 41.0427 24.9813 40.492 24.748C39.9507 24.5147 39.5213 24.1787 39.204 23.74C38.8867 23.3013 38.7233 22.7833 38.714 22.186H40.814C40.842 22.5873 40.982 22.9047 41.234 23.138C41.4953 23.3713 41.85 23.488 42.298 23.488C42.7553 23.488 43.1147 23.3807 43.376 23.166C43.6373 22.942 43.768 22.6527 43.768 22.298C43.768 22.0087 43.6793 21.7707 43.502 21.584C43.3247 21.3973 43.1007 21.2527 42.83 21.15C42.5687 21.038 42.2047 20.9167 41.738 20.786C41.1033 20.5993 40.5853 20.4173 40.184 20.24C39.792 20.0533 39.4513 19.778 39.162 19.414C38.882 19.0407 38.742 18.546 38.742 17.93C38.742 17.3513 38.8867 16.8473 39.176 16.418C39.4653 15.9887 39.8713 15.662 40.394 15.438C40.9167 15.2047 41.514 15.088 42.186 15.088C43.194 15.088 44.0107 15.3353 44.636 15.83C45.2707 16.3153 45.6207 16.9967 45.686 17.874H43.53C43.5113 17.538 43.3667 17.2627 43.096 17.048C42.8347 16.824 42.4847 16.712 42.046 16.712C41.6633 16.712 41.3553 16.81 41.122 17.006C40.898 17.202 40.786 17.4867 40.786 17.86C40.786 18.1213 40.87 18.3407 41.038 18.518C41.2153 18.686 41.43 18.826 41.682 18.938C41.9433 19.0407 42.3073 19.162 42.774 19.302C43.4087 19.4887 43.9267 19.6753 44.328 19.862C44.7293 20.0487 45.0747 20.3287 45.364 20.702C45.6533 21.0753 45.798 21.5653 45.798 22.172C45.798 22.6947 45.6627 23.18 45.392 23.628C45.1213 24.076 44.7247 24.4353 44.202 24.706C43.6793 24.9673 43.0587 25.098 42.34 25.098ZM54.7073 20.954C54.7073 21.234 54.6886 21.486 54.6513 21.71H48.9813C49.0279 22.27 49.2239 22.7087 49.5693 23.026C49.9146 23.3433 50.3393 23.502 50.8433 23.502C51.5713 23.502 52.0893 23.1893 52.3973 22.564H54.5113C54.2873 23.3107 53.8579 23.9267 53.2233 24.412C52.5886 24.888 51.8093 25.126 50.8853 25.126C50.1386 25.126 49.4666 24.9627 48.8693 24.636C48.2813 24.3 47.8193 23.8287 47.4833 23.222C47.1566 22.6153 46.9932 21.9153 46.9932 21.122C46.9932 20.3193 47.1566 19.6147 47.4833 19.008C47.8099 18.4013 48.2673 17.9347 48.8553 17.608C49.4433 17.2813 50.1199 17.118 50.8853 17.118C51.6226 17.118 52.2806 17.2767 52.8593 17.594C53.4473 17.9113 53.8999 18.364 54.2173 18.952C54.5439 19.5307 54.7073 20.198 54.7073 20.954ZM52.6773 20.394C52.6679 19.89 52.4859 19.4887 52.1313 19.19C51.7766 18.882 51.3426 18.728 50.8293 18.728C50.3439 18.728 49.9333 18.8773 49.5973 19.176C49.2706 19.4653 49.0699 19.8713 48.9953 20.394H52.6773ZM63.3479 20.954C63.3479 21.234 63.3292 21.486 63.2919 21.71H57.6219C57.6685 22.27 57.8645 22.7087 58.2099 23.026C58.5552 23.3433 58.9799 23.502 59.4839 23.502C60.2119 23.502 60.7299 23.1893 61.0379 22.564H63.1519C62.9279 23.3107 62.4985 23.9267 61.8639 24.412C61.2292 24.888 60.4499 25.126 59.5259 25.126C58.7792 25.126 58.1072 24.9627 57.5099 24.636C56.9219 24.3 56.4599 23.8287 56.1239 23.222C55.7972 22.6153 55.6339 21.9153 55.6339 21.122C55.6339 20.3193 55.7972 19.6147 56.1239 19.008C56.4505 18.4013 56.9079 17.9347 57.4959 17.608C58.0839 17.2813 58.7605 17.118 59.5259 17.118C60.2632 17.118 60.9212 17.2767 61.4999 17.594C62.0879 17.9113 62.5405 18.364 62.8579 18.952C63.1845 19.5307 63.3479 20.198 63.3479 20.954ZM61.3179 20.394C61.3085 19.89 61.1265 19.4887 60.7719 19.19C60.4172 18.882 59.9832 18.728 59.4699 18.728C58.9845 18.728 58.5739 18.8773 58.2379 19.176C57.9112 19.4653 57.7105 19.8713 57.6359 20.394H61.3179ZM74.1064 23.138H70.2144L69.5704 25H67.5124L71.0264 15.214H73.3084L76.8224 25H74.7504L74.1064 23.138ZM73.5744 21.57L72.1604 17.482L70.7464 21.57H73.5744ZM80.0959 14.64V25H78.1359V14.64H80.0959ZM83.9924 14.64V25H82.0324V14.64H83.9924Z" fill="black"/>
</g>
<defs>
<clipPath id="clip0_73_2072">
<rect width="123" height="40.1658" rx="7.87565" fill="white"/>
</clipPath>
</defs>
</svg>
