<svg width="50" height="51" viewBox="0 0 50 51" fill="none" xmlns="http://www.w3.org/2000/svg">
<path d="M0 0H44C47.3137 0 50 2.68629 50 6V45C50 48.3137 47.3137 51 44 51H0V0Z" fill="#2EAAE1"/>
<path d="M0 0H44C47.3137 0 50 2.68629 50 6V45C50 48.3137 47.3137 51 44 51H0V0Z" stroke="#363636"/>
<path fill-rule="evenodd" clip-rule="evenodd" d="M27.2335 31L32.8898 25.4285C33.4106 24.9152 33.4106 24.0832 32.8898 23.5715L27.2335 18L25.3479 19.8581L28.7279 23.1867H18V25.8129H28.7279L25.3479 29.1427L27.2335 31Z" fill="white"/>
</svg>
