<svg width="37" height="38" viewBox="0 0 37 38" fill="none" xmlns="http://www.w3.org/2000/svg">
<path opacity="0.1" fill-rule="evenodd" clip-rule="evenodd" d="M18.5 36.5C28.165 36.5 36 28.665 36 19C36 9.33502 28.165 1.5 18.5 1.5C8.83502 1.5 1 9.33502 1 19C1 28.665 8.83502 36.5 18.5 36.5Z" stroke="white" stroke-width="1.5"/>
<path opacity="0.1" fill-rule="evenodd" clip-rule="evenodd" d="M18.5 36.5C28.165 36.5 36 28.665 36 19C36 9.33502 28.165 1.5 18.5 1.5C8.83502 1.5 1 9.33502 1 19C1 28.665 8.83502 36.5 18.5 36.5Z" stroke="white" stroke-width="1.5"/>
<path d="M17.6667 21.4999L21.1267 19.4999L17.6667 17.4999V21.4999ZM25.3733 16.2799C25.46 16.5933 25.52 17.0133 25.56 17.5466C25.6067 18.0799 25.6267 18.5399 25.6267 18.9399L25.6667 19.4999C25.6667 20.9599 25.56 22.0333 25.3733 22.7199C25.2067 23.3199 24.82 23.7066 24.22 23.8733C23.9067 23.9599 23.3333 24.0199 22.4533 24.0599C21.5867 24.1066 20.7933 24.1266 20.06 24.1266L19 24.1666C16.2067 24.1666 14.4667 24.0599 13.78 23.8733C13.18 23.7066 12.7933 23.3199 12.6267 22.7199C12.54 22.4066 12.48 21.9866 12.44 21.4533C12.3933 20.9199 12.3733 20.4599 12.3733 20.0599L12.3333 19.4999C12.3333 18.0399 12.44 16.9666 12.6267 16.2799C12.7933 15.6799 13.18 15.2933 13.78 15.1266C14.0933 15.0399 14.6667 14.9799 15.5467 14.9399C16.4133 14.8933 17.2067 14.8733 17.94 14.8733L19 14.8333C21.7933 14.8333 23.5333 14.9399 24.22 15.1266C24.82 15.2933 25.2067 15.6799 25.3733 16.2799Z" fill="white"/>
</svg>
